<?xml version="1.0" encoding="UTF-8"?>
<!DOCTYPE svg PUBLIC "-//W3C//DTD SVG 1.1//EN" "http://www.w3.org/Graphics/SVG/1.1/DTD/svg11.dtd">
<svg xmlns="http://www.w3.org/2000/svg" version="1.1" width="320px" height="320px" style="shape-rendering:geometricPrecision; text-rendering:geometricPrecision; image-rendering:optimizeQuality; fill-rule:evenodd; clip-rule:evenodd" xmlns:xlink="http://www.w3.org/1999/xlink">
<g><path style="opacity:0.863" fill="#feb71e" d="M 273.5,61.5 C 285.525,79.5649 294.359,99.2316 300,120.5C 304.731,144.77 301.731,168.437 291,191.5C 288.027,195.974 284.86,200.307 281.5,204.5C 275.526,209.06 269.693,213.727 264,218.5C 263.667,218.167 263.333,217.833 263,217.5C 253.567,221.802 244.067,226.635 234.5,232C 228.568,234.471 222.568,236.638 216.5,238.5C 214.378,238.623 212.211,238.623 210,238.5C 208.116,239.977 206.116,241.31 204,242.5C 202.043,241.146 200.043,241.479 198,243.5C 197.667,243.167 197.333,242.833 197,242.5C 193.754,243.818 190.42,244.818 187,245.5C 183.473,244.245 180.306,243.078 177.5,242C 178.654,241.086 178.487,240.253 177,239.5C 174.424,247.451 172.758,247.117 172,238.5C 171.303,240.584 170.136,242.251 168.5,243.5C 168.348,237.301 167.682,231.301 166.5,225.5C 166.5,225.167 166.5,224.833 166.5,224.5C 166.435,224.062 166.601,223.728 167,223.5C 168.039,224.244 168.539,225.244 168.5,226.5C 171.568,230.292 174.402,234.292 177,238.5C 177.149,235.721 177.983,235.221 179.5,237C 185.112,238.096 190.612,238.596 196,238.5C 197.892,237.87 199.559,236.87 201,235.5C 201.333,235.833 201.667,236.167 202,236.5C 207.777,233.757 213.777,231.424 220,229.5C 222.184,230.108 224.184,229.441 226,227.5C 227.147,228.458 228.147,228.125 229,226.5C 229.333,226.833 229.667,227.167 230,227.5C 244.306,220.745 258.473,212.912 272.5,204C 275.629,200.572 279.462,197.072 284,193.5C 287.048,190.023 289.548,186.19 291.5,182C 303.463,149.827 301.297,117.66 285,85.5C 255.405,36.1291 212.072,11.4624 155,11.5C 103.163,13.8247 63.1631,37.8247 35,83.5C 26.7239,99.4642 21.5572,115.798 19.5,132.5C 20.0279,138.292 20.0279,144.125 19.5,150C 20.6327,164.001 24.7993,177.168 32,189.5C 33.6667,189.5 35.3333,189.5 37,189.5C 39.5316,192.164 41.6983,191.83 43.5,188.5C 45.6968,187.155 48.0302,185.989 50.5,185C 53.1667,184.333 55.8333,184.333 58.5,185C 56.2922,185.191 54.2922,185.691 52.5,186.5C 51.8333,186.833 51.1667,187.167 50.5,187.5C 49.5041,187.414 48.6708,187.748 48,188.5C 46.3333,193.167 44.6667,197.833 43,202.5C 42.1283,204.613 40.6283,205.946 38.5,206.5C 34.742,204.539 31.242,202.205 28,199.5C 13.8191,174.282 9.98572,148.282 16.5,121.5C 16.1049,117.36 16.7716,113.193 18.5,109C 18.4301,108.235 18.0967,107.735 17.5,107.5C 36.2454,60.256 69.9121,29.0893 118.5,14C 171.054,0.891462 218.054,11.5581 259.5,46C 264.766,50.7587 269.433,55.9254 273.5,61.5 Z"/></g>
<g><path style="opacity:1" fill="#febe24" d="M 168.5,226.5 C 172.175,226.754 175.009,228.42 177,231.5C 177.085,229.915 177.251,228.582 177.5,227.5C 179.201,228.802 180.368,230.469 181,232.5C 184.468,231.197 187.968,231.197 191.5,232.5C 192.192,231.975 192.692,231.308 193,230.5C 194,230.833 195,231.167 196,231.5C 201.545,229.952 206.878,227.952 212,225.5C 212.333,225.833 212.667,226.167 213,226.5C 213.605,224.519 214.605,224.185 216,225.5C 216.324,223.431 217.158,223.098 218.5,224.5C 220.134,224.032 221.3,223.032 222,221.5C 223.903,221.694 225.737,221.694 227.5,221.5C 228.826,220.01 230.326,218.676 232,217.5C 232.414,217.957 232.914,218.291 233.5,218.5C 248.063,211.168 262.063,202.168 275.5,191.5C 276.386,190.675 276.719,189.675 276.5,188.5C 277.552,188.649 278.552,188.483 279.5,188C 283.881,182.07 287.881,175.903 291.5,169.5C 291.291,168.914 290.957,168.414 290.5,168C 291.636,166.47 292.636,165.137 293.5,164C 292.879,161.502 293.545,159.168 295.5,157C 294.878,155.431 294.544,153.764 294.5,152C 294.949,146.256 295.616,140.589 296.5,135C 295.833,133.333 295.167,131.667 294.5,130C 294.217,127.102 294.217,124.102 294.5,121C 292.588,114.879 290.754,108.379 289,101.5C 284.743,93.3193 280.743,84.986 277,76.5C 266.01,61.6766 253.177,48.6766 238.5,37.5C 189.704,8.59314 140.037,6.75981 89.5,32C 80.6469,37.2616 72.3135,43.2616 64.5,50C 58.0491,57.0728 51.7158,64.2394 45.5,71.5C 42.7937,79.6268 38.6271,87.2935 33,94.5C 23.3648,117.521 21.0314,140.855 26,164.5C 27.7675,169.177 30.2675,173.343 33.5,177C 32.1667,179 32.1667,181 33.5,183C 35.0762,183.44 36.4096,184.273 37.5,185.5C 38.1924,184.975 38.6924,184.308 39,183.5C 41.0811,184.333 43.2478,184.333 45.5,183.5C 45.9382,183.435 46.2716,183.601 46.5,184C 45.1175,185.271 44.1175,186.771 43.5,188.5C 41.6983,191.83 39.5316,192.164 37,189.5C 35.3333,189.5 33.6667,189.5 32,189.5C 24.7993,177.168 20.6327,164.001 19.5,150C 20.0279,144.125 20.0279,138.292 19.5,132.5C 21.5572,115.798 26.7239,99.4642 35,83.5C 63.1631,37.8247 103.163,13.8247 155,11.5C 212.072,11.4624 255.405,36.1291 285,85.5C 301.297,117.66 303.463,149.827 291.5,182C 289.548,186.19 287.048,190.023 284,193.5C 279.462,197.072 275.629,200.572 272.5,204C 258.473,212.912 244.306,220.745 230,227.5C 229.667,227.167 229.333,226.833 229,226.5C 228.147,228.125 227.147,228.458 226,227.5C 224.184,229.441 222.184,230.108 220,229.5C 213.777,231.424 207.777,233.757 202,236.5C 201.667,236.167 201.333,235.833 201,235.5C 199.559,236.87 197.892,237.87 196,238.5C 190.612,238.596 185.112,238.096 179.5,237C 177.983,235.221 177.149,235.721 177,238.5C 174.402,234.292 171.568,230.292 168.5,226.5 Z"/></g>
<g><path style="opacity:1" fill="#fec329" d="M 168.5,226.5 C 168.539,225.244 168.039,224.244 167,223.5C 166.601,223.728 166.435,224.062 166.5,224.5C 166.167,224.5 165.833,224.5 165.5,224.5C 164.585,222.246 163.252,220.246 161.5,218.5C 167.057,219.612 171.723,222.278 175.5,226.5C 175.833,226.333 176.167,226.167 176.5,226C 175.235,224.663 174.735,223.163 175,221.5C 178.75,224.693 183.084,226.693 188,227.5C 189.676,226.939 191.009,225.939 192,224.5C 195.77,224.96 199.437,224.96 203,224.5C 210.064,221.66 217.397,218.326 225,214.5C 226.43,214.306 227.93,214.306 229.5,214.5C 232.022,211.135 235.355,209.302 239.5,209C 242.003,206.916 244.669,205.083 247.5,203.5C 248.086,203.709 248.586,204.043 249,204.5C 252.916,200.596 257.416,197.43 262.5,195C 262.167,194.667 261.833,194.333 261.5,194C 278.056,183.504 288.056,168.837 291.5,150C 291.167,149.667 290.833,149.333 290.5,149C 291.24,147.215 291.907,145.382 292.5,143.5C 291.398,141.039 291.398,138.539 292.5,136C 290.858,126.693 288.524,117.359 285.5,108C 285.833,107.667 286.167,107.333 286.5,107C 284.38,105.477 284.047,103.644 285.5,101.5C 282.372,98.5262 280.872,94.8595 281,90.5C 271.825,73.2203 259.325,58.0536 243.5,45C 238.554,42.406 233.554,39.906 228.5,37.5C 228.5,36.5 228.5,35.5 228.5,34.5C 219.92,32.3778 211.92,28.8778 204.5,24C 167.738,13.2731 132.072,15.6064 97.5,31C 86.6173,38.2319 75.9506,45.7319 65.5,53.5C 62.2222,56.0341 59.3889,59.0341 57,62.5C 55.1207,64.5268 53.954,66.8602 53.5,69.5C 50.2788,70.8817 47.7788,73.2151 46,76.5C 45.4427,78.6147 44.6094,80.6147 43.5,82.5C 43.6236,83.1067 43.9569,83.44 44.5,83.5C 44.5,84.5 44.5,85.5 44.5,86.5C 44.2148,88.288 44.5481,89.9547 45.5,91.5C 47.1667,92.6667 48.8333,93.8333 50.5,95C 47.9568,97.3508 48.6235,98.5175 52.5,98.5C 52.5299,99.4972 52.0299,100.164 51,100.5C 47.698,99.7371 44.698,98.4038 42,96.5C 41.3292,97.2524 40.4959,97.5858 39.5,97.5C 37.5355,98.7817 35.5355,100.115 33.5,101.5C 32.7272,104.431 31.7272,107.264 30.5,110C 31.0653,114.944 30.232,119.777 28,124.5C 27.6645,128.689 27.1645,132.856 26.5,137C 26.9631,139.389 27.6297,141.723 28.5,144C 27.2723,148.38 27.9389,152.38 30.5,156C 30.1667,157 29.8333,158 29.5,159C 31.4451,162.991 33.1118,167.157 34.5,171.5C 36.8736,173.215 39.0403,175.215 41,177.5C 41.414,177.043 41.914,176.709 42.5,176.5C 45.8918,178.42 49.2252,179.42 52.5,179.5C 50.1667,180.833 47.8333,182.167 45.5,183.5C 43.2478,184.333 41.0811,184.333 39,183.5C 38.6924,184.308 38.1924,184.975 37.5,185.5C 36.4096,184.273 35.0762,183.44 33.5,183C 32.1667,181 32.1667,179 33.5,177C 30.2675,173.343 27.7675,169.177 26,164.5C 21.0314,140.855 23.3648,117.521 33,94.5C 38.6271,87.2935 42.7937,79.6268 45.5,71.5C 51.7158,64.2394 58.0491,57.0728 64.5,50C 72.3135,43.2616 80.6469,37.2616 89.5,32C 140.037,6.75981 189.704,8.59314 238.5,37.5C 253.177,48.6766 266.01,61.6766 277,76.5C 280.743,84.986 284.743,93.3193 289,101.5C 290.754,108.379 292.588,114.879 294.5,121C 294.217,124.102 294.217,127.102 294.5,130C 295.167,131.667 295.833,133.333 296.5,135C 295.616,140.589 294.949,146.256 294.5,152C 294.544,153.764 294.878,155.431 295.5,157C 293.545,159.168 292.879,161.502 293.5,164C 292.636,165.137 291.636,166.47 290.5,168C 290.957,168.414 291.291,168.914 291.5,169.5C 287.881,175.903 283.881,182.07 279.5,188C 278.552,188.483 277.552,188.649 276.5,188.5C 276.719,189.675 276.386,190.675 275.5,191.5C 262.063,202.168 248.063,211.168 233.5,218.5C 232.914,218.291 232.414,217.957 232,217.5C 230.326,218.676 228.826,220.01 227.5,221.5C 225.737,221.694 223.903,221.694 222,221.5C 221.3,223.032 220.134,224.032 218.5,224.5C 217.158,223.098 216.324,223.431 216,225.5C 214.605,224.185 213.605,224.519 213,226.5C 212.667,226.167 212.333,225.833 212,225.5C 206.878,227.952 201.545,229.952 196,231.5C 195,231.167 194,230.833 193,230.5C 192.692,231.308 192.192,231.975 191.5,232.5C 187.968,231.197 184.468,231.197 181,232.5C 180.368,230.469 179.201,228.802 177.5,227.5C 177.251,228.582 177.085,229.915 177,231.5C 175.009,228.42 172.175,226.754 168.5,226.5 Z"/></g>
<g><path style="opacity:1" fill="#fedf5b" d="M 206.5,38.5 C 206.548,39.5071 205.548,39.8404 203.5,39.5C 194.653,38.8739 185.986,39.7072 177.5,42C 173.53,44.1314 170.863,47.298 169.5,51.5C 165.201,57.19 165.534,62.69 170.5,68C 174.827,69.8863 179.327,71.053 184,71.5C 189.821,71.3152 195.654,70.9819 201.5,70.5C 205.13,70.7646 208.297,72.0979 211,74.5C 212.557,73.7948 213.723,74.4615 214.5,76.5C 216.045,77.4519 217.712,77.7852 219.5,77.5C 219.421,78.9305 219.754,80.2638 220.5,81.5C 222.941,84.9027 225.275,87.736 227.5,90C 227.167,90.3333 226.833,90.6667 226.5,91C 227.009,93.5697 228.009,95.9031 229.5,98C 229.167,98.3333 228.833,98.6667 228.5,99C 229.5,99.3333 230.5,99.6667 231.5,100C 232.253,102.286 232.253,104.786 231.5,107.5C 231.689,109.795 233.023,111.795 235.5,113.5C 235.894,115.424 235.227,117.257 233.5,119C 236.028,120.316 236.028,121.483 233.5,122.5C 233.931,123.293 234.265,124.127 234.5,125C 233.711,126.626 232.711,128.126 231.5,129.5C 232.833,130.833 232.833,132.167 231.5,133.5C 232.248,135.332 233.248,136.999 234.5,138.5C 233.5,139.833 232.5,141.167 231.5,142.5C 232.711,145.414 231.711,147.414 228.5,148.5C 229.025,149.192 229.692,149.692 230.5,150C 227.437,151.525 224.77,153.525 222.5,156C 222.833,156.333 223.167,156.667 223.5,157C 222.167,157.667 220.833,158.333 219.5,159C 222.038,160.171 222.538,161.671 221,163.5C 219.951,162.483 218.784,162.316 217.5,163C 215.542,165.748 213.709,168.582 212,171.5C 211.586,171.043 211.086,170.709 210.5,170.5C 209.059,171.865 207.726,173.365 206.5,175C 205.551,175.617 204.718,175.451 204,174.5C 203.101,176.516 201.767,178.183 200,179.5C 199.51,180.793 199.343,182.127 199.5,183.5C 197.139,183.674 194.806,184.007 192.5,184.5C 192.047,183.542 191.381,182.708 190.5,182C 192.915,180.535 193.915,178.368 193.5,175.5C 195.39,175.703 196.89,175.037 198,173.5C 200.129,174.863 200.629,174.529 199.5,172.5C 200.718,172.891 201.552,172.224 202,170.5C 204.091,171.5 205.757,170.833 207,168.5C 207.49,167.207 207.657,165.873 207.5,164.5C 208.675,164.719 209.675,164.386 210.5,163.5C 212.645,160.188 215.312,157.354 218.5,155C 217.833,154.667 217.167,154.333 216.5,154C 217.257,152.488 218.257,151.154 219.5,150C 218.733,147.051 219.9,144.884 223,143.5C 224.565,140.068 226.565,136.402 229,132.5C 229.029,129.633 229.862,127.133 231.5,125C 230.852,119.067 230.186,113.234 229.5,107.5C 227.036,92.6971 218.369,85.0305 203.5,84.5C 204.263,83.7321 205.263,83.2321 206.5,83C 201.55,76.8104 195.55,73.9771 188.5,74.5C 185.905,72.8382 183.239,72.5048 180.5,73.5C 172.098,73.238 166.598,69.238 164,61.5C 164.909,56.8632 162.742,54.1965 157.5,53.5C 154.716,53.6174 151.883,53.6174 149,53.5C 146.763,54.0563 144.763,55.0563 143,56.5C 142.667,55.8333 142.333,55.1667 142,54.5C 140.184,56.4414 138.184,57.1081 136,56.5C 134.43,57.614 133.097,58.9474 132,60.5C 130.84,58.203 129.84,58.5363 129,61.5C 128.667,60.8333 128.333,60.1667 128,59.5C 126.013,60.218 124.179,61.218 122.5,62.5C 123.025,63.1924 123.692,63.6924 124.5,64C 121.573,64.1756 118.906,65.009 116.5,66.5C 115.774,68.5699 115.108,70.2366 114.5,71.5C 113.188,70.5396 111.854,70.7063 110.5,72C 102.173,72.4997 93.84,72.6664 85.5,72.5C 85.9175,71.7784 86.5842,71.2784 87.5,71C 87.1667,70.6667 86.8333,70.3333 86.5,70C 87.8333,69.6667 89.1667,69.3333 90.5,69C 89.7236,67.2302 89.8903,65.3969 91,63.5C 92.1597,65.797 93.1597,65.4637 94,62.5C 95.3639,63.2583 96.5305,62.7583 97.5,61C 96.2888,60.1072 96.2888,59.2739 97.5,58.5C 98.9015,58.7764 100.402,58.7764 102,58.5C 102.5,58.1667 103,57.8333 103.5,57.5C 102.833,57.1667 102.167,56.8333 101.5,56.5C 105.41,55.6408 109.076,53.6408 112.5,50.5C 114.62,51.8715 115.62,51.2048 115.5,48.5C 117.582,48.528 119.416,47.8613 121,46.5C 122.016,47.6341 122.683,47.3008 123,45.5C 124.268,45.6158 125.602,45.9491 127,46.5C 127.915,45.6721 128.581,44.6721 129,43.5C 133.974,42.8868 138.641,42.8868 143,43.5C 144.512,42.7433 145.846,41.7433 147,40.5C 147.308,41.3081 147.808,41.9747 148.5,42.5C 148.489,41.5585 148.989,40.8919 150,40.5C 152.882,41.2492 155.549,41.2492 158,40.5C 158.667,41.1667 159.333,41.8333 160,42.5C 161.063,41.5622 162.23,40.5622 163.5,39.5C 164.478,39.9767 165.311,40.6433 166,41.5C 166.805,39.0989 167.638,39.2656 168.5,42C 169.5,42.1667 170.5,42.3333 171.5,42.5C 182.692,37.7131 194.359,36.3798 206.5,38.5 Z"/></g>
<g><path style="opacity:1" fill="#fee66b" d="M 203.5,84.5 C 202.167,84.8333 200.833,85.1667 199.5,85.5C 197.093,84.2883 194.76,82.7883 192.5,81C 194.929,80.5488 195.096,79.7155 193,78.5C 192.667,78.8333 192.333,79.1667 192,79.5C 191.667,78.5 191.333,77.5 191,76.5C 189.026,76.6472 187.026,76.9805 185,77.5C 184.072,75.6652 182.906,75.3318 181.5,76.5C 176.693,75.8893 172.359,74.2226 168.5,71.5C 166.898,72.55 166.065,71.8833 166,69.5C 165.667,70.1667 165.333,70.8333 165,71.5C 162.117,68.7601 158.784,66.7601 155,65.5C 153.846,67.9574 152.512,67.9574 151,65.5C 150.517,66.448 150.351,67.448 150.5,68.5C 149.167,68.5 147.833,68.5 146.5,68.5C 146.649,67.448 146.483,66.448 146,65.5C 145.365,69.1015 144.032,69.7682 142,67.5C 141.228,68.8491 140.061,69.6824 138.5,70C 139.167,70.3333 139.833,70.6667 140.5,71C 139.333,71.5 138.5,72.3333 138,73.5C 137.667,72.8333 137.333,72.1667 137,71.5C 135.89,73.0368 134.39,73.7035 132.5,73.5C 132.785,75.288 132.452,76.9547 131.5,78.5C 128.617,73.722 124.617,72.3887 119.5,74.5C 107.167,74.5 94.8333,74.5 82.5,74.5C 80.1432,74.6633 77.8098,74.4966 75.5,74C 78.8536,73.5448 82.1869,73.0448 85.5,72.5C 93.84,72.6664 102.173,72.4997 110.5,72C 111.854,70.7063 113.188,70.5396 114.5,71.5C 115.108,70.2366 115.774,68.5699 116.5,66.5C 118.906,65.009 121.573,64.1756 124.5,64C 123.692,63.6924 123.025,63.1924 122.5,62.5C 124.179,61.218 126.013,60.218 128,59.5C 128.333,60.1667 128.667,60.8333 129,61.5C 129.84,58.5363 130.84,58.203 132,60.5C 133.097,58.9474 134.43,57.614 136,56.5C 138.184,57.1081 140.184,56.4414 142,54.5C 142.333,55.1667 142.667,55.8333 143,56.5C 144.763,55.0563 146.763,54.0563 149,53.5C 151.883,53.6174 154.716,53.6174 157.5,53.5C 162.742,54.1965 164.909,56.8632 164,61.5C 166.598,69.238 172.098,73.238 180.5,73.5C 183.239,72.5048 185.905,72.8382 188.5,74.5C 195.55,73.9771 201.55,76.8104 206.5,83C 205.263,83.2321 204.263,83.7321 203.5,84.5 Z"/></g>
<g><path style="opacity:1" fill="#fecd36" d="M 249.5,59.5 C 251.017,59.5106 252.184,60.1772 253,61.5C 253.333,61.1667 253.667,60.8333 254,60.5C 265.633,72.7797 275.133,87.1131 282.5,103.5C 282.623,105.622 282.623,107.789 282.5,110C 284.169,115.581 285.836,121.248 287.5,127C 286.833,128 286.167,129 285.5,130C 286.245,134.027 286.578,138.527 286.5,143.5C 285.103,145.982 284.269,148.648 284,151.5C 281.878,152.22 281.378,153.387 282.5,155C 280.996,156.491 280.163,158.324 280,160.5C 278.334,159.66 278.167,160.16 279.5,162C 277.758,164.797 275.758,167.464 273.5,170C 274.634,171.016 274.301,171.683 272.5,172C 272.833,172.333 273.167,172.667 273.5,173C 269.826,176.342 266.492,180.008 263.5,184C 262.5,184.333 261.5,184.667 260.5,185C 260.833,185.333 261.167,185.667 261.5,186C 260.24,187.113 259.073,187.28 258,186.5C 255.877,187.883 254.877,189.55 255,191.5C 254.667,190.833 254.333,190.167 254,189.5C 252.403,192.219 250.237,194.386 247.5,196C 242.541,198.479 237.541,200.979 232.5,203.5C 230.877,202.509 229.877,203.176 229.5,205.5C 224.954,207.426 220.454,209.426 216,211.5C 215.667,211.167 215.333,210.833 215,210.5C 211.175,211.765 207.842,213.765 205,216.5C 204.333,215.833 203.667,215.167 203,214.5C 201.333,215.5 199.667,216.5 198,217.5C 196,217.5 194,217.5 192,217.5C 190.088,218.692 188.088,219.692 186,220.5C 177.853,217.881 169.686,217.214 161.5,218.5C 157.279,216.647 152.945,214.98 148.5,213.5C 150.948,212.527 153.615,212.194 156.5,212.5C 165.195,212.673 173.862,212.34 182.5,211.5C 180.723,212.6 178.723,213.434 176.5,214C 184.17,213.8 191.836,213.134 199.5,212C 200.833,211 200.833,210 199.5,209C 202.726,207.894 205.393,206.061 207.5,203.5C 216.863,198.238 226.03,193.572 235,189.5C 236.333,187.833 237.667,186.167 239,184.5C 239.333,184.833 239.667,185.167 240,185.5C 242.122,183.415 244.289,181.415 246.5,179.5C 247.795,178.902 249.128,178.402 250.5,178C 249.167,176.16 249.334,175.66 251,176.5C 252.829,174.844 254.163,172.844 255,170.5C 255.741,171.641 256.575,171.641 257.5,170.5C 258.281,169.271 258.781,167.938 259,166.5C 259.333,166.833 259.667,167.167 260,167.5C 260.684,166.216 260.517,165.049 259.5,164C 260.563,162.812 261.897,162.312 263.5,162.5C 266.123,157.431 268.457,152.598 270.5,148C 273.328,144.699 273.994,141.032 272.5,137C 273.167,135.667 273.833,134.333 274.5,133C 273.651,129.893 273.317,126.893 273.5,124C 274.167,123.333 274.833,122.667 275.5,122C 274.143,117.742 272.476,113.575 270.5,109.5C 271.025,108.808 271.692,108.308 272.5,108C 271.313,106.981 270.313,105.814 269.5,104.5C 270.379,101.617 270.379,98.9502 269.5,96.5C 267.785,94.1264 265.785,91.9597 263.5,90C 265.891,89.3086 265.891,88.3086 263.5,87C 263.833,86.6667 264.167,86.3333 264.5,86C 262.998,83.7528 260.998,82.0862 258.5,81C 259.167,80.6667 259.833,80.3333 260.5,80C 257.644,76.3284 254.144,73.4951 250,71.5C 248.416,72.8613 246.582,73.528 244.5,73.5C 242.345,73.628 240.345,73.128 238.5,72C 245.942,72.3909 249.608,68.8909 249.5,61.5C 249.5,60.8333 249.5,60.1667 249.5,59.5 Z"/></g>
<g><path style="opacity:1" fill="#fec92f" d="M 161.5,218.5 C 169.686,217.214 177.853,217.881 186,220.5C 188.088,219.692 190.088,218.692 192,217.5C 194,217.5 196,217.5 198,217.5C 199.667,216.5 201.333,215.5 203,214.5C 203.667,215.167 204.333,215.833 205,216.5C 207.842,213.765 211.175,211.765 215,210.5C 215.333,210.833 215.667,211.167 216,211.5C 220.454,209.426 224.954,207.426 229.5,205.5C 229.877,203.176 230.877,202.509 232.5,203.5C 237.541,200.979 242.541,198.479 247.5,196C 250.237,194.386 252.403,192.219 254,189.5C 254.333,190.167 254.667,190.833 255,191.5C 254.877,189.55 255.877,187.883 258,186.5C 259.073,187.28 260.24,187.113 261.5,186C 261.167,185.667 260.833,185.333 260.5,185C 261.5,184.667 262.5,184.333 263.5,184C 266.492,180.008 269.826,176.342 273.5,173C 273.167,172.667 272.833,172.333 272.5,172C 274.301,171.683 274.634,171.016 273.5,170C 275.758,167.464 277.758,164.797 279.5,162C 278.167,160.16 278.334,159.66 280,160.5C 280.163,158.324 280.996,156.491 282.5,155C 281.378,153.387 281.878,152.22 284,151.5C 284.269,148.648 285.103,145.982 286.5,143.5C 286.578,138.527 286.245,134.027 285.5,130C 286.167,129 286.833,128 287.5,127C 285.836,121.248 284.169,115.581 282.5,110C 282.623,107.789 282.623,105.622 282.5,103.5C 275.133,87.1131 265.633,72.7797 254,60.5C 253.667,60.8333 253.333,61.1667 253,61.5C 252.184,60.1772 251.017,59.5106 249.5,59.5C 249.443,58.391 249.11,57.391 248.5,56.5C 249.525,56.1034 249.692,55.4368 249,54.5C 247.59,53.2125 246.09,52.0458 244.5,51C 233.238,45.2018 222.238,39.8685 211.5,35C 208.226,33.7977 204.893,32.7977 201.5,32C 200.368,29.7899 198.868,29.2899 197,30.5C 195.72,30.3865 194.887,29.7199 194.5,28.5C 190.623,27.551 186.79,26.551 183,25.5C 178.156,25.0684 173.489,25.0684 169,25.5C 164.904,24.9041 160.904,23.9041 157,22.5C 146.077,24.4781 135.244,26.8114 124.5,29.5C 123.833,29.1667 123.167,28.8333 122.5,28.5C 109.733,33.7217 97.7333,39.555 86.5,46C 84.0651,49.0384 81.0651,51.3717 77.5,53C 73.6878,56.4819 70.1878,60.3153 67,64.5C 66.6667,64.1667 66.3333,63.8333 66,63.5C 62.85,67.1544 60.35,71.1544 58.5,75.5C 54.1715,75.7157 50.1715,76.8823 46.5,79C 46.7284,79.3988 47.0618,79.5654 47.5,79.5C 46.5,80.8333 45.5,82.1667 44.5,83.5C 43.9569,83.44 43.6236,83.1067 43.5,82.5C 44.6094,80.6147 45.4427,78.6147 46,76.5C 47.7788,73.2151 50.2788,70.8817 53.5,69.5C 53.954,66.8602 55.1207,64.5268 57,62.5C 59.3889,59.0341 62.2222,56.0341 65.5,53.5C 75.9506,45.7319 86.6173,38.2319 97.5,31C 132.072,15.6064 167.738,13.2731 204.5,24C 211.92,28.8778 219.92,32.3778 228.5,34.5C 228.5,35.5 228.5,36.5 228.5,37.5C 233.554,39.906 238.554,42.406 243.5,45C 259.325,58.0536 271.825,73.2203 281,90.5C 280.872,94.8595 282.372,98.5262 285.5,101.5C 284.047,103.644 284.38,105.477 286.5,107C 286.167,107.333 285.833,107.667 285.5,108C 288.524,117.359 290.858,126.693 292.5,136C 291.398,138.539 291.398,141.039 292.5,143.5C 291.907,145.382 291.24,147.215 290.5,149C 290.833,149.333 291.167,149.667 291.5,150C 288.056,168.837 278.056,183.504 261.5,194C 261.833,194.333 262.167,194.667 262.5,195C 257.416,197.43 252.916,200.596 249,204.5C 248.586,204.043 248.086,203.709 247.5,203.5C 244.669,205.083 242.003,206.916 239.5,209C 235.355,209.302 232.022,211.135 229.5,214.5C 227.93,214.306 226.43,214.306 225,214.5C 217.397,218.326 210.064,221.66 203,224.5C 199.437,224.96 195.77,224.96 192,224.5C 191.009,225.939 189.676,226.939 188,227.5C 183.084,226.693 178.75,224.693 175,221.5C 174.735,223.163 175.235,224.663 176.5,226C 176.167,226.167 175.833,226.333 175.5,226.5C 171.723,222.278 167.057,219.612 161.5,218.5 Z"/></g>
<g><path style="opacity:1" fill="#e49226" d="M 237.5,63.5 C 237.083,64.1239 236.416,64.4573 235.5,64.5C 225.442,62.438 215.275,61.438 205,61.5C 194.503,61.9999 184.003,62.3332 173.5,62.5C 172.833,62.5 172.5,62.1667 172.5,61.5C 189.388,58.1232 206.388,57.6232 223.5,60C 228.402,60.7409 233.068,61.9076 237.5,63.5 Z"/></g>
<g><path style="opacity:1" fill="#d67301" d="M 203.5,39.5 C 213.911,41.5227 224.245,44.356 234.5,48C 239.73,50.1057 244.397,52.939 248.5,56.5C 249.11,57.391 249.443,58.391 249.5,59.5C 249.5,60.1667 249.5,60.8333 249.5,61.5C 248.833,62.1667 248.167,62.8333 247.5,63.5C 244.235,64.4602 240.902,64.4602 237.5,63.5C 233.068,61.9076 228.402,60.7409 223.5,60C 206.388,57.6232 189.388,58.1232 172.5,61.5C 171.542,61.0472 170.708,60.3805 170,59.5C 169.503,56.854 169.336,54.1873 169.5,51.5C 170.863,47.298 173.53,44.1314 177.5,42C 185.986,39.7072 194.653,38.8739 203.5,39.5 Z"/></g>
<g><path style="opacity:1" fill="#fed94b" d="M 206.5,38.5 C 194.359,36.3798 182.692,37.7131 171.5,42.5C 170.5,42.3333 169.5,42.1667 168.5,42C 167.638,39.2656 166.805,39.0989 166,41.5C 165.311,40.6433 164.478,39.9767 163.5,39.5C 162.23,40.5622 161.063,41.5622 160,42.5C 159.333,41.8333 158.667,41.1667 158,40.5C 155.549,41.2492 152.882,41.2492 150,40.5C 148.989,40.8919 148.489,41.5585 148.5,42.5C 147.808,41.9747 147.308,41.3081 147,40.5C 145.846,41.7433 144.512,42.7433 143,43.5C 138.641,42.8868 133.974,42.8868 129,43.5C 128.581,44.6721 127.915,45.6721 127,46.5C 125.602,45.9491 124.268,45.6158 123,45.5C 122.683,47.3008 122.016,47.6341 121,46.5C 119.416,47.8613 117.582,48.528 115.5,48.5C 115.62,51.2048 114.62,51.8715 112.5,50.5C 109.076,53.6408 105.41,55.6408 101.5,56.5C 102.167,56.8333 102.833,57.1667 103.5,57.5C 103,57.8333 102.5,58.1667 102,58.5C 100.402,58.7764 98.9015,58.7764 97.5,58.5C 96.2888,59.2739 96.2888,60.1072 97.5,61C 96.5305,62.7583 95.3639,63.2583 94,62.5C 93.1597,65.4637 92.1597,65.797 91,63.5C 89.8903,65.3969 89.7236,67.2302 90.5,69C 89.1667,69.3333 87.8333,69.6667 86.5,70C 86.8333,70.3333 87.1667,70.6667 87.5,71C 86.5842,71.2784 85.9175,71.7784 85.5,72.5C 82.1869,73.0448 78.8536,73.5448 75.5,74C 77.8098,74.4966 80.1432,74.6633 82.5,74.5C 70.883,75.5998 59.2164,77.2664 47.5,79.5C 47.0618,79.5654 46.7284,79.3988 46.5,79C 50.1715,76.8823 54.1715,75.7157 58.5,75.5C 62.3058,75.5879 65.9725,74.9213 69.5,73.5C 73.1863,69.6481 76.6863,65.6481 80,61.5C 80.3333,62.1667 80.6667,62.8333 81,63.5C 84.3247,58.0567 88.4913,54.2234 93.5,52C 94.7014,51.0975 95.5348,49.9308 96,48.5C 97.0495,49.5171 98.2161,49.6838 99.5,49C 98.1667,48.3333 98.1667,47.6667 99.5,47C 101.298,45.4947 103.132,45.3281 105,46.5C 106.915,44.1216 109.415,42.6216 112.5,42C 112.167,41.6667 111.833,41.3333 111.5,41C 114,40.6253 116.333,39.7919 118.5,38.5C 119.086,38.7093 119.586,39.0426 120,39.5C 120.879,36.6537 122.546,35.987 125,37.5C 130.598,35.8152 136.098,34.1485 141.5,32.5C 144.679,33.3085 148.179,32.9751 152,31.5C 157.333,32.8333 162.667,32.8333 168,31.5C 168.333,32.1667 168.667,32.8333 169,33.5C 172.031,30.9479 174.864,31.2813 177.5,34.5C 182.288,33.1589 186.788,33.8256 191,36.5C 191.772,36.3552 192.439,36.0219 193,35.5C 197.651,36.219 202.151,37.219 206.5,38.5 Z"/></g>
<g><path style="opacity:1" fill="#fed23e" d="M 248.5,56.5 C 244.397,52.939 239.73,50.1057 234.5,48C 224.245,44.356 213.911,41.5227 203.5,39.5C 205.548,39.8404 206.548,39.5071 206.5,38.5C 202.151,37.219 197.651,36.219 193,35.5C 192.439,36.0219 191.772,36.3552 191,36.5C 186.788,33.8256 182.288,33.1589 177.5,34.5C 174.864,31.2813 172.031,30.9479 169,33.5C 168.667,32.8333 168.333,32.1667 168,31.5C 162.667,32.8333 157.333,32.8333 152,31.5C 148.179,32.9751 144.679,33.3085 141.5,32.5C 136.098,34.1485 130.598,35.8152 125,37.5C 122.546,35.987 120.879,36.6537 120,39.5C 119.586,39.0426 119.086,38.7093 118.5,38.5C 116.333,39.7919 114,40.6253 111.5,41C 111.833,41.3333 112.167,41.6667 112.5,42C 109.415,42.6216 106.915,44.1216 105,46.5C 103.132,45.3281 101.298,45.4947 99.5,47C 98.1667,47.6667 98.1667,48.3333 99.5,49C 98.2161,49.6838 97.0495,49.5171 96,48.5C 95.5348,49.9308 94.7014,51.0975 93.5,52C 88.4913,54.2234 84.3247,58.0567 81,63.5C 80.6667,62.8333 80.3333,62.1667 80,61.5C 76.6863,65.6481 73.1863,69.6481 69.5,73.5C 65.9725,74.9213 62.3058,75.5879 58.5,75.5C 60.35,71.1544 62.85,67.1544 66,63.5C 66.3333,63.8333 66.6667,64.1667 67,64.5C 70.1878,60.3153 73.6878,56.4819 77.5,53C 81.0651,51.3717 84.0651,49.0384 86.5,46C 97.7333,39.555 109.733,33.7217 122.5,28.5C 123.167,28.8333 123.833,29.1667 124.5,29.5C 135.244,26.8114 146.077,24.4781 157,22.5C 160.904,23.9041 164.904,24.9041 169,25.5C 173.489,25.0684 178.156,25.0684 183,25.5C 186.79,26.551 190.623,27.551 194.5,28.5C 194.887,29.7199 195.72,30.3865 197,30.5C 198.868,29.2899 200.368,29.7899 201.5,32C 204.893,32.7977 208.226,33.7977 211.5,35C 222.238,39.8685 233.238,45.2018 244.5,51C 246.09,52.0458 247.59,53.2125 249,54.5C 249.692,55.4368 249.525,56.1034 248.5,56.5 Z"/></g>
<g><path style="opacity:1" fill="#eda936" d="M 237.5,63.5 C 240.902,64.4602 244.235,64.4602 247.5,63.5C 247.586,64.4959 247.252,65.3292 246.5,66C 234.441,66.1611 222.441,65.3277 210.5,63.5C 198.49,63.7584 186.49,63.9251 174.5,64C 173.944,63.6174 173.611,63.1174 173.5,62.5C 184.003,62.3332 194.503,61.9999 205,61.5C 215.275,61.438 225.442,62.438 235.5,64.5C 236.416,64.4573 237.083,64.1239 237.5,63.5 Z"/></g>
<g><path style="opacity:0.972" fill="#feb11a" d="M 273.5,61.5 C 285.412,73.773 294.079,88.1063 299.5,104.5C 299.389,105.117 299.056,105.617 298.5,106C 300.537,110.488 302.204,115.155 303.5,120C 303.043,120.414 302.709,120.914 302.5,121.5C 308.177,148.484 304.344,174.484 291,199.5C 287.891,202.278 285.558,205.611 284,209.5C 280.633,211.257 278.466,213.923 277.5,217.5C 276.448,217.351 275.448,217.517 274.5,218C 265.187,225.669 254.854,231.669 243.5,236C 228.669,241.239 213.835,245.739 199,249.5C 198.228,249.355 197.561,249.022 197,248.5C 193.264,250.018 189.43,251.352 185.5,252.5C 182.243,251.449 178.91,250.782 175.5,250.5C 175.778,248.654 175.111,247.32 173.5,246.5C 171.098,248.909 168.431,250.909 165.5,252.5C 165.877,250.742 166.544,249.075 167.5,247.5C 166.567,246.015 166.9,244.682 168.5,243.5C 170.136,242.251 171.303,240.584 172,238.5C 172.758,247.117 174.424,247.451 177,239.5C 178.487,240.253 178.654,241.086 177.5,242C 180.306,243.078 183.473,244.245 187,245.5C 190.42,244.818 193.754,243.818 197,242.5C 197.333,242.833 197.667,243.167 198,243.5C 200.043,241.479 202.043,241.146 204,242.5C 206.116,241.31 208.116,239.977 210,238.5C 212.211,238.623 214.378,238.623 216.5,238.5C 222.568,236.638 228.568,234.471 234.5,232C 244.067,226.635 253.567,221.802 263,217.5C 263.333,217.833 263.667,218.167 264,218.5C 269.693,213.727 275.526,209.06 281.5,204.5C 284.86,200.307 288.027,195.974 291,191.5C 301.731,168.437 304.731,144.77 300,120.5C 294.359,99.2316 285.525,79.5649 273.5,61.5 Z"/></g>
<g><path style="opacity:1" fill="#f8d059" d="M 169.5,51.5 C 169.336,54.1873 169.503,56.854 170,59.5C 170.708,60.3805 171.542,61.0472 172.5,61.5C 172.5,62.1667 172.833,62.5 173.5,62.5C 173.611,63.1174 173.944,63.6174 174.5,64C 186.49,63.9251 198.49,63.7584 210.5,63.5C 211.609,64.29 212.942,64.79 214.5,65C 209.833,65.3333 205.167,65.6667 200.5,66C 204.416,67.1024 208.416,67.769 212.5,68C 213.056,68.3826 213.389,68.8826 213.5,69.5C 207.184,68.6423 200.85,68.4756 194.5,69C 197.036,69.1862 199.369,69.6862 201.5,70.5C 195.654,70.9819 189.821,71.3152 184,71.5C 179.327,71.053 174.827,69.8863 170.5,68C 165.534,62.69 165.201,57.19 169.5,51.5 Z"/></g>
<g><path style="opacity:1" fill="#fee977" d="M 199.5,85.5 C 194.5,88.5 190.5,92.5 187.5,97.5C 187.316,95.0752 186.649,95.0752 185.5,97.5C 182.912,96.8064 180.579,95.6398 178.5,94C 179.258,92.6361 178.758,91.4695 177,90.5C 176.16,93.4637 175.16,93.797 174,91.5C 173.086,92.6537 172.253,92.487 171.5,91C 172.624,90.7508 173.624,90.2508 174.5,89.5C 174.333,89.1667 174.167,88.8333 174,88.5C 172.044,88.7845 169.877,88.7845 167.5,88.5C 167.649,89.552 167.483,90.552 167,91.5C 165.989,90.6634 164.822,90.33 163.5,90.5C 163.351,89.448 163.517,88.448 164,87.5C 164.654,88.6956 165.154,88.6956 165.5,87.5C 163.758,85.0266 161.925,85.0266 160,87.5C 158.467,87.0563 156.967,86.723 155.5,86.5C 154.328,86.9186 153.328,87.5853 152.5,88.5C 153.506,89.3957 153.506,90.0623 152.5,90.5C 150.742,89.8721 149.242,88.8721 148,87.5C 146.795,88.0712 145.628,88.7379 144.5,89.5C 147.167,90.5 147.167,91.5 144.5,92.5C 143.833,92.1667 143.167,91.8333 142.5,91.5C 141.618,92.7598 140.618,93.9264 139.5,95C 139.833,95.3333 140.167,95.6667 140.5,96C 138.59,97.7006 137.423,99.8673 137,102.5C 136.282,101.549 135.449,101.383 134.5,102C 132.806,106.035 130.306,109.535 127,112.5C 126.667,112.167 126.333,111.833 126,111.5C 125.682,113.061 124.849,114.228 123.5,115C 125.991,115.626 125.991,116.459 123.5,117.5C 124.376,118.251 125.376,118.751 126.5,119C 125.114,121.484 123.447,123.817 121.5,126C 123.891,127.309 123.891,128.309 121.5,129C 122.833,129.667 122.833,130.333 121.5,131C 123.18,131.347 124.18,132.347 124.5,134C 125.102,136.479 124.436,138.813 122.5,141C 123.449,141.617 124.282,141.451 125,140.5C 125.948,142.57 127.448,144.07 129.5,145C 128.692,145.308 128.025,145.808 127.5,146.5C 128.449,150.411 130.783,153.078 134.5,154.5C 135.965,153.391 136.965,153.891 137.5,156C 141.359,157.743 144.692,159.577 147.5,161.5C 148.696,161.154 148.696,160.654 147.5,160C 150.898,159.84 153.898,161.007 156.5,163.5C 157.611,162.389 158.945,161.722 160.5,161.5C 164.924,162.988 169.257,162.821 173.5,161C 172.833,160.333 172.167,159.667 171.5,159C 173.5,159 175.5,159 177.5,159C 179.14,156.661 181.14,155.828 183.5,156.5C 184.833,154.833 186.167,153.167 187.5,151.5C 188.086,151.709 188.586,152.043 189,152.5C 189.454,150.464 190.287,148.63 191.5,147C 191.355,146.228 191.022,145.561 190.5,145C 192.567,144.464 194.401,144.964 196,146.5C 200.251,146.7 204.584,146.366 209,145.5C 211.003,144.017 213.17,142.683 215.5,141.5C 217.503,139.867 218.836,137.867 219.5,135.5C 221.555,133.445 223.221,131.112 224.5,128.5C 225.833,126.167 227.167,123.833 228.5,121.5C 228.264,124.914 227.598,128.247 226.5,131.5C 225.264,135.416 223.264,138.916 220.5,142C 215.955,144.772 211.289,147.272 206.5,149.5C 205.757,150.908 204.923,152.241 204,153.5C 203.667,153.167 203.333,152.833 203,152.5C 199.565,156.998 195.398,161.498 190.5,166C 193.167,167.333 193.167,168.667 190.5,170C 182.692,171.493 175.858,174.66 170,179.5C 167.432,179.049 165.098,178.049 163,176.5C 160.602,176.958 158.936,178.292 158,180.5C 155.68,177.984 153.013,176.984 150,177.5C 145.033,175.552 140.867,172.385 137.5,168C 129.228,164.598 121.728,160.098 115,154.5C 114.316,153.216 114.483,152.049 115.5,151C 112.942,148.257 110.942,145.09 109.5,141.5C 108.802,140.137 108.802,138.971 109.5,138C 107.369,136.353 105.369,136.686 103.5,139C 93.2018,141.503 83.2018,140.669 73.5,136.5C 72.7025,136.957 72.3691,137.624 72.5,138.5C 70.551,134.375 68.2177,130.375 65.5,126.5C 64.513,123.232 64.1796,119.898 64.5,116.5C 65.1667,118.167 65.8333,119.833 66.5,121.5C 67.066,126.8 69.7327,130.633 74.5,133C 98.2056,140.433 109.872,131.933 109.5,107.5C 118.958,108.409 126.125,104.743 131,96.5C 131.941,93.1853 132.774,89.852 133.5,86.5C 131.665,85.5723 131.332,84.4056 132.5,83C 131.552,82.5172 130.552,82.3505 129.5,82.5C 129.528,80.4176 128.861,78.5843 127.5,77C 124.749,76.0572 122.083,75.2239 119.5,74.5C 124.617,72.3887 128.617,73.722 131.5,78.5C 132.452,76.9547 132.785,75.288 132.5,73.5C 134.39,73.7035 135.89,73.0368 137,71.5C 137.333,72.1667 137.667,72.8333 138,73.5C 138.5,72.3333 139.333,71.5 140.5,71C 139.833,70.6667 139.167,70.3333 138.5,70C 140.061,69.6824 141.228,68.8491 142,67.5C 144.032,69.7682 145.365,69.1015 146,65.5C 146.483,66.448 146.649,67.448 146.5,68.5C 147.833,68.5 149.167,68.5 150.5,68.5C 150.351,67.448 150.517,66.448 151,65.5C 152.512,67.9574 153.846,67.9574 155,65.5C 158.784,66.7601 162.117,68.7601 165,71.5C 165.333,70.8333 165.667,70.1667 166,69.5C 166.065,71.8833 166.898,72.55 168.5,71.5C 172.359,74.2226 176.693,75.8893 181.5,76.5C 182.906,75.3318 184.072,75.6652 185,77.5C 187.026,76.9805 189.026,76.6472 191,76.5C 191.333,77.5 191.667,78.5 192,79.5C 192.333,79.1667 192.667,78.8333 193,78.5C 195.096,79.7155 194.929,80.5488 192.5,81C 194.76,82.7883 197.093,84.2883 199.5,85.5 Z"/></g>
<g><path style="opacity:1" fill="#f9c945" d="M 249.5,61.5 C 249.608,68.8909 245.942,72.3909 238.5,72C 240.345,73.128 242.345,73.628 244.5,73.5C 251.298,76.9046 250.964,77.9046 243.5,76.5C 237.373,75.3946 231.04,74.0613 224.5,72.5C 220.664,71.8134 216.998,70.8134 213.5,69.5C 213.389,68.8826 213.056,68.3826 212.5,68C 208.416,67.769 204.416,67.1024 200.5,66C 205.167,65.6667 209.833,65.3333 214.5,65C 212.942,64.79 211.609,64.29 210.5,63.5C 222.441,65.3277 234.441,66.1611 246.5,66C 247.252,65.3292 247.586,64.4959 247.5,63.5C 248.167,62.8333 248.833,62.1667 249.5,61.5 Z"/></g>
<g><path style="opacity:1" fill="#fddc56" d="M 213.5,69.5 C 216.998,70.8134 220.664,71.8134 224.5,72.5C 231.261,75.3821 237.595,79.0488 243.5,83.5C 244.23,84.9337 245.23,86.1004 246.5,87C 245.833,87.3333 245.167,87.6667 244.5,88C 245.424,88.85 245.424,89.85 244.5,91C 246.025,95.0848 247.525,95.2515 249,91.5C 249.624,93.4645 249.124,95.1311 247.5,96.5C 249.24,99.0944 250.907,101.594 252.5,104C 252.902,107.936 252.902,111.602 252.5,115C 254.781,116.482 254.781,118.149 252.5,120C 253.281,122.522 253.614,125.189 253.5,128C 252.529,129.204 251.529,129.704 250.5,129.5C 252.184,130.854 252.684,132.521 252,134.5C 251.086,133.346 250.253,133.513 249.5,135C 250.727,136.587 250.394,137.921 248.5,139C 249.876,141.54 249.21,143.54 246.5,145C 247.517,146.049 247.684,147.216 247,148.5C 246.259,147.359 245.425,147.359 244.5,148.5C 243.719,151.986 242.553,155.32 241,158.5C 239,159.833 237,161.167 235,162.5C 234.947,165.61 233.614,167.944 231,169.5C 230.667,169.167 230.333,168.833 230,168.5C 228.26,170.184 227.094,172.018 226.5,174C 222.865,173.541 220.699,175.375 220,179.5C 219.667,179.167 219.333,178.833 219,178.5C 217.736,180.607 215.903,181.607 213.5,181.5C 213.5,182.5 213.5,183.5 213.5,184.5C 210.896,184.598 208.896,185.765 207.5,188C 209.495,192.103 209.828,196.269 208.5,200.5C 208.167,200.5 207.833,200.5 207.5,200.5C 208.77,195.644 207.437,191.644 203.5,188.5C 203.158,187.662 202.492,187.328 201.5,187.5C 193.863,186.573 186.196,187.24 178.5,189.5C 170.648,189.825 162.982,189.492 155.5,188.5C 168.027,188.853 180.36,187.52 192.5,184.5C 194.806,184.007 197.139,183.674 199.5,183.5C 199.343,182.127 199.51,180.793 200,179.5C 201.767,178.183 203.101,176.516 204,174.5C 204.718,175.451 205.551,175.617 206.5,175C 207.726,173.365 209.059,171.865 210.5,170.5C 211.086,170.709 211.586,171.043 212,171.5C 213.709,168.582 215.542,165.748 217.5,163C 218.784,162.316 219.951,162.483 221,163.5C 222.538,161.671 222.038,160.171 219.5,159C 220.833,158.333 222.167,157.667 223.5,157C 223.167,156.667 222.833,156.333 222.5,156C 224.77,153.525 227.437,151.525 230.5,150C 229.692,149.692 229.025,149.192 228.5,148.5C 231.711,147.414 232.711,145.414 231.5,142.5C 232.5,141.167 233.5,139.833 234.5,138.5C 233.248,136.999 232.248,135.332 231.5,133.5C 232.833,132.167 232.833,130.833 231.5,129.5C 232.711,128.126 233.711,126.626 234.5,125C 234.265,124.127 233.931,123.293 233.5,122.5C 236.028,121.483 236.028,120.316 233.5,119C 235.227,117.257 235.894,115.424 235.5,113.5C 233.023,111.795 231.689,109.795 231.5,107.5C 232.253,104.786 232.253,102.286 231.5,100C 230.5,99.6667 229.5,99.3333 228.5,99C 228.833,98.6667 229.167,98.3333 229.5,98C 228.009,95.9031 227.009,93.5697 226.5,91C 226.833,90.6667 227.167,90.3333 227.5,90C 225.275,87.736 222.941,84.9027 220.5,81.5C 219.754,80.2638 219.421,78.9305 219.5,77.5C 217.712,77.7852 216.045,77.4519 214.5,76.5C 213.723,74.4615 212.557,73.7948 211,74.5C 208.297,72.0979 205.13,70.7646 201.5,70.5C 199.369,69.6862 197.036,69.1862 194.5,69C 200.85,68.4756 207.184,68.6423 213.5,69.5 Z"/></g>
<g><path style="opacity:1" fill="#d47001" d="M 82.5,74.5 C 94.8333,74.5 107.167,74.5 119.5,74.5C 122.083,75.2239 124.749,76.0572 127.5,77C 128.861,78.5843 129.528,80.4176 129.5,82.5C 129.975,86.4158 128.975,89.7491 126.5,92.5C 119.458,93.8955 112.458,94.8955 105.5,95.5C 93.5324,93.5315 81.5324,93.1982 69.5,94.5C 63.2069,92.7736 56.5402,91.6069 49.5,91C 47.313,89.975 45.6464,88.475 44.5,86.5C 44.5,85.5 44.5,84.5 44.5,83.5C 45.5,82.1667 46.5,80.8333 47.5,79.5C 59.2164,77.2664 70.883,75.5998 82.5,74.5 Z"/></g>
<g><path style="opacity:1" fill="#dc7900" d="M 50.5,85.5 C 75.5022,85.3334 100.502,85.5 125.5,86C 126.308,86.3076 126.975,86.8076 127.5,87.5C 125.851,90.7388 123.184,92.2388 119.5,92C 98.7639,93.1001 78.0973,92.4334 57.5,90C 54.9237,88.8779 52.257,87.8779 49.5,87C 50.056,86.6174 50.3893,86.1174 50.5,85.5 Z"/></g>
<g><path style="opacity:1" fill="#181826" d="M 203.5,84.5 C 218.369,85.0305 227.036,92.6971 229.5,107.5C 229.46,112.193 229.127,116.859 228.5,121.5C 227.167,123.833 225.833,126.167 224.5,128.5C 225.582,124.246 226.249,119.913 226.5,115.5C 225.71,109.797 224.71,104.131 223.5,98.5C 219.869,97.3924 216.869,95.2258 214.5,92C 207.929,88.0977 201.929,88.7644 196.5,94C 195.219,96.4033 193.386,98.2367 191,99.5C 190.241,102.785 188.908,105.785 187,108.5C 186.563,113.747 187.396,118.747 189.5,123.5C 188.873,124.417 188.539,125.417 188.5,126.5C 183.512,117.135 183.179,107.469 187.5,97.5C 190.5,92.5 194.5,88.5 199.5,85.5C 200.833,85.1667 202.167,84.8333 203.5,84.5 Z"/></g>
<g><path style="opacity:1" fill="#1b1d33" d="M 224.5,128.5 C 223.221,131.112 221.555,133.445 219.5,135.5C 205.934,143.192 195.601,140.192 188.5,126.5C 188.539,125.417 188.873,124.417 189.5,123.5C 187.396,118.747 186.563,113.747 187,108.5C 188.908,105.785 190.241,102.785 191,99.5C 193.386,98.2367 195.219,96.4033 196.5,94C 201.929,88.7644 207.929,88.0977 214.5,92C 216.869,95.2258 219.869,97.3924 223.5,98.5C 224.71,104.131 225.71,109.797 226.5,115.5C 226.249,119.913 225.582,124.246 224.5,128.5 Z"/></g>
<g><path style="opacity:1" fill="#feee82" d="M 187.5,97.5 C 183.179,107.469 183.512,117.135 188.5,126.5C 195.601,140.192 205.934,143.192 219.5,135.5C 218.836,137.867 217.503,139.867 215.5,141.5C 213.17,142.683 211.003,144.017 209,145.5C 204.584,146.366 200.251,146.7 196,146.5C 194.401,144.964 192.567,144.464 190.5,145C 191.022,145.561 191.355,146.228 191.5,147C 190.287,148.63 189.454,150.464 189,152.5C 188.586,152.043 188.086,151.709 187.5,151.5C 186.167,153.167 184.833,154.833 183.5,156.5C 181.14,155.828 179.14,156.661 177.5,159C 175.5,159 173.5,159 171.5,159C 172.167,159.667 172.833,160.333 173.5,161C 169.257,162.821 164.924,162.988 160.5,161.5C 158.945,161.722 157.611,162.389 156.5,163.5C 153.898,161.007 150.898,159.84 147.5,160C 148.696,160.654 148.696,161.154 147.5,161.5C 144.692,159.577 141.359,157.743 137.5,156C 136.965,153.891 135.965,153.391 134.5,154.5C 130.783,153.078 128.449,150.411 127.5,146.5C 128.025,145.808 128.692,145.308 129.5,145C 127.448,144.07 125.948,142.57 125,140.5C 124.282,141.451 123.449,141.617 122.5,141C 124.436,138.813 125.102,136.479 124.5,134C 124.18,132.347 123.18,131.347 121.5,131C 122.833,130.333 122.833,129.667 121.5,129C 123.891,128.309 123.891,127.309 121.5,126C 123.447,123.817 125.114,121.484 126.5,119C 125.376,118.751 124.376,118.251 123.5,117.5C 125.991,116.459 125.991,115.626 123.5,115C 124.849,114.228 125.682,113.061 126,111.5C 126.333,111.833 126.667,112.167 127,112.5C 130.306,109.535 132.806,106.035 134.5,102C 135.449,101.383 136.282,101.549 137,102.5C 137.423,99.8673 138.59,97.7006 140.5,96C 140.167,95.6667 139.833,95.3333 139.5,95C 140.618,93.9264 141.618,92.7598 142.5,91.5C 143.167,91.8333 143.833,92.1667 144.5,92.5C 147.167,91.5 147.167,90.5 144.5,89.5C 145.628,88.7379 146.795,88.0712 148,87.5C 149.242,88.8721 150.742,89.8721 152.5,90.5C 153.506,90.0623 153.506,89.3957 152.5,88.5C 153.328,87.5853 154.328,86.9186 155.5,86.5C 156.967,86.723 158.467,87.0563 160,87.5C 161.925,85.0266 163.758,85.0266 165.5,87.5C 165.154,88.6956 164.654,88.6956 164,87.5C 163.517,88.448 163.351,89.448 163.5,90.5C 164.822,90.33 165.989,90.6634 167,91.5C 167.483,90.552 167.649,89.552 167.5,88.5C 169.877,88.7845 172.044,88.7845 174,88.5C 174.167,88.8333 174.333,89.1667 174.5,89.5C 173.624,90.2508 172.624,90.7508 171.5,91C 172.253,92.487 173.086,92.6537 174,91.5C 175.16,93.797 176.16,93.4637 177,90.5C 178.758,91.4695 179.258,92.6361 178.5,94C 180.579,95.6398 182.912,96.8064 185.5,97.5C 186.649,95.0752 187.316,95.0752 187.5,97.5 Z"/></g>
<g><path style="opacity:1" fill="#1e171b" d="M 105.5,95.5 C 105.66,97.153 106.326,98.4863 107.5,99.5C 108.15,101.435 108.483,103.435 108.5,105.5C 106.33,104.162 104.664,102.328 103.5,100C 94.7785,97.7319 86.1118,97.2319 77.5,98.5C 76.391,98.5569 75.391,98.8902 74.5,99.5C 72.2431,98.1974 70.4098,98.864 69,101.5C 67.9304,108.152 67.0971,114.819 66.5,121.5C 65.8333,119.833 65.1667,118.167 64.5,116.5C 64.5,113.167 64.5,109.833 64.5,106.5C 64.5,106.167 64.5,105.833 64.5,105.5C 65.4345,104.432 65.7678,103.099 65.5,101.5C 67.0709,99.3649 68.4043,97.0316 69.5,94.5C 81.5324,93.1982 93.5324,93.5315 105.5,95.5 Z"/></g>
<g><path style="opacity:1" fill="#f8d565" d="M 129.5,82.5 C 130.552,82.3505 131.552,82.5172 132.5,83C 131.332,84.4056 131.665,85.5723 133.5,86.5C 132.774,89.852 131.941,93.1853 131,96.5C 126.125,104.743 118.958,108.409 109.5,107.5C 109.672,106.508 109.338,105.842 108.5,105.5C 108.483,103.435 108.15,101.435 107.5,99.5C 113.245,99.0412 118.911,97.8745 124.5,96C 125.823,95.1841 126.489,94.0174 126.5,92.5C 128.975,89.7491 129.975,86.4158 129.5,82.5 Z"/></g>
<g><path style="opacity:1" fill="#5d5c6d" d="M 199.5,94.5 C 206.549,94.216 209.883,97.5493 209.5,104.5C 206.116,109.674 201.783,110.674 196.5,107.5C 195.226,105.007 194.56,102.341 194.5,99.5C 195.833,97.5 197.5,95.8333 199.5,94.5 Z"/></g>
<g><path style="opacity:1" fill="#e59f38" d="M 126.5,92.5 C 126.489,94.0174 125.823,95.1841 124.5,96C 118.911,97.8745 113.245,99.0412 107.5,99.5C 106.326,98.4863 105.66,97.153 105.5,95.5C 112.458,94.8955 119.458,93.8955 126.5,92.5 Z"/></g>
<g><path style="opacity:1" fill="#fdc82e" d="M 39.5,97.5 C 38.8288,98.8471 38.8288,100.014 39.5,101C 36.4744,103.409 35.4744,106.409 36.5,110C 34.6045,112.735 33.9378,115.568 34.5,118.5C 34.032,120.134 33.032,121.3 31.5,122C 32.5156,122.519 33.1822,123.353 33.5,124.5C 32.8802,129.979 32.5469,135.145 32.5,140C 34.5127,140.875 34.5127,142.209 32.5,144C 35.0018,146.763 35.6684,149.429 34.5,152C 35.8333,153 37.1667,154 38.5,155C 38.0426,155.414 37.7093,155.914 37.5,156.5C 39.3792,158.913 41.0459,161.413 42.5,164C 41.4829,165.049 41.3162,166.216 42,167.5C 42.9078,169.439 44.4078,170.439 46.5,170.5C 46.3537,172.942 47.187,173.609 49,172.5C 52.0705,174.239 55.2372,175.905 58.5,177.5C 59.086,177.291 59.586,176.957 60,176.5C 64.2638,178.629 68.4305,180.796 72.5,183C 77.1395,189.609 82.4728,195.609 88.5,201C 88.1667,201.333 87.8333,201.667 87.5,202C 89.6789,203.257 91.6789,204.757 93.5,206.5C 97.1707,205.828 100.837,206.161 104.5,207.5C 106.164,206.777 107.831,207.11 109.5,208.5C 114.431,208.04 119.431,208.04 124.5,208.5C 127.228,208.171 129.562,208.837 131.5,210.5C 117.968,209.641 104.801,209.641 92,210.5C 90.414,209.624 88.914,208.624 87.5,207.5C 83.8034,202.302 80.3034,196.969 77,191.5C 72.726,187.226 67.8927,183.726 62.5,181C 59.2432,179.957 55.9099,179.457 52.5,179.5C 49.2252,179.42 45.8918,178.42 42.5,176.5C 41.914,176.709 41.414,177.043 41,177.5C 39.0403,175.215 36.8736,173.215 34.5,171.5C 33.1118,167.157 31.4451,162.991 29.5,159C 29.8333,158 30.1667,157 30.5,156C 27.9389,152.38 27.2723,148.38 28.5,144C 27.6297,141.723 26.9631,139.389 26.5,137C 27.1645,132.856 27.6645,128.689 28,124.5C 30.232,119.777 31.0653,114.944 30.5,110C 31.7272,107.264 32.7272,104.431 33.5,101.5C 35.5355,100.115 37.5355,98.7817 39.5,97.5 Z"/></g>
<g><path style="opacity:1" fill="#f0b031" d="M 44.5,86.5 C 45.6464,88.475 47.313,89.975 49.5,91C 56.5402,91.6069 63.2069,92.7736 69.5,94.5C 68.4043,97.0316 67.0709,99.3649 65.5,101.5C 61.5417,99.7798 57.2084,98.7798 52.5,98.5C 48.6235,98.5175 47.9568,97.3508 50.5,95C 48.8333,93.8333 47.1667,92.6667 45.5,91.5C 44.5481,89.9547 44.2148,88.288 44.5,86.5 Z"/></g>
<g><path style="opacity:1" fill="#fed543" d="M 182.5,211.5 C 186.785,210.738 190.785,209.405 194.5,207.5C 199.1,205.738 203.434,203.405 207.5,200.5C 207.833,200.5 208.167,200.5 208.5,200.5C 208.81,201.738 209.31,201.738 210,200.5C 210.246,197.11 210.746,193.777 211.5,190.5C 215.14,188.768 218.306,186.435 221,183.5C 222.087,185.932 222.587,185.598 222.5,182.5C 223.552,182.649 224.552,182.483 225.5,182C 230.877,176.723 236.044,171.89 241,167.5C 241.333,167.833 241.667,168.167 242,168.5C 242.559,166.14 243.892,163.807 246,161.5C 247.101,159.606 248.434,158.939 250,159.5C 250.492,158.451 250.326,157.451 249.5,156.5C 251.385,155.803 251.718,154.803 250.5,153.5C 251.325,152.614 252.325,152.281 253.5,152.5C 253.34,150.801 253.506,149.134 254,147.5C 255.264,147.36 256.431,147.36 257.5,147.5C 257.291,146.914 256.957,146.414 256.5,146C 259.352,142.005 260.352,137.672 259.5,133C 262.131,131.309 261.797,130.142 258.5,129.5C 260.149,128.026 261.149,126.193 261.5,124C 259.849,119.776 260.515,116.776 263.5,115C 263.01,113.018 262.01,111.351 260.5,110C 261.167,109 261.833,108 262.5,107C 259.793,105.801 259.126,103.967 260.5,101.5C 258.726,98.2852 257.226,94.9518 256,91.5C 255.167,90 254,88.8333 252.5,88C 253.167,87.6667 253.833,87.3333 254.5,87C 251.747,83.1522 248.08,79.6522 243.5,76.5C 250.964,77.9046 251.298,76.9046 244.5,73.5C 246.582,73.528 248.416,72.8613 250,71.5C 254.144,73.4951 257.644,76.3284 260.5,80C 259.833,80.3333 259.167,80.6667 258.5,81C 260.998,82.0862 262.998,83.7528 264.5,86C 264.167,86.3333 263.833,86.6667 263.5,87C 265.891,88.3086 265.891,89.3086 263.5,90C 265.785,91.9597 267.785,94.1264 269.5,96.5C 270.379,98.9502 270.379,101.617 269.5,104.5C 270.313,105.814 271.313,106.981 272.5,108C 271.692,108.308 271.025,108.808 270.5,109.5C 272.476,113.575 274.143,117.742 275.5,122C 274.833,122.667 274.167,123.333 273.5,124C 273.317,126.893 273.651,129.893 274.5,133C 273.833,134.333 273.167,135.667 272.5,137C 273.994,141.032 273.328,144.699 270.5,148C 268.457,152.598 266.123,157.431 263.5,162.5C 261.897,162.312 260.563,162.812 259.5,164C 260.517,165.049 260.684,166.216 260,167.5C 259.667,167.167 259.333,166.833 259,166.5C 258.781,167.938 258.281,169.271 257.5,170.5C 256.575,171.641 255.741,171.641 255,170.5C 254.163,172.844 252.829,174.844 251,176.5C 249.334,175.66 249.167,176.16 250.5,178C 249.128,178.402 247.795,178.902 246.5,179.5C 244.289,181.415 242.122,183.415 240,185.5C 239.667,185.167 239.333,184.833 239,184.5C 237.667,186.167 236.333,187.833 235,189.5C 226.03,193.572 216.863,198.238 207.5,203.5C 205.393,206.061 202.726,207.894 199.5,209C 200.833,210 200.833,211 199.5,212C 191.836,213.134 184.17,213.8 176.5,214C 178.723,213.434 180.723,212.6 182.5,211.5 Z"/></g>
<g><path style="opacity:1" fill="#fecf39" d="M 52.5,98.5 C 57.2084,98.7798 61.5417,99.7798 65.5,101.5C 65.7678,103.099 65.4345,104.432 64.5,105.5C 63.3064,104.223 61.6397,103.556 59.5,103.5C 56.8556,104.029 54.3556,104.029 52,103.5C 49.0699,107.023 46.9033,111.023 45.5,115.5C 46.2231,117.164 45.8897,118.831 44.5,120.5C 45.4415,120.489 46.1081,120.989 46.5,122C 45.7113,123.626 44.7113,125.126 43.5,126.5C 43.9767,127.478 44.6433,128.311 45.5,129C 45.5234,131.432 45.1901,133.932 44.5,136.5C 45.8212,140.784 46.9878,145.117 48,149.5C 48.4652,150.931 49.2986,152.097 50.5,153C 50.1667,153.333 49.8333,153.667 49.5,154C 52.5443,154.359 52.8776,155.026 50.5,156C 51.1667,156.333 51.8333,156.667 52.5,157C 51.5494,157.718 51.3828,158.551 52,159.5C 52.7175,158.549 53.5509,158.383 54.5,159C 55.2567,160.512 56.2567,161.846 57.5,163C 57.0426,163.414 56.7093,163.914 56.5,164.5C 58.1707,166.978 60.504,168.478 63.5,169C 62.5419,170.147 62.8753,171.147 64.5,172C 65.4491,172.617 66.2825,172.451 67,171.5C 68.6373,172.833 69.4707,174.166 69.5,175.5C 70.086,175.291 70.586,174.957 71,174.5C 72.3333,176.5 73.6667,178.5 75,180.5C 75.3333,180.167 75.6667,179.833 76,179.5C 77.9789,180.714 79.4789,182.381 80.5,184.5C 82.1017,183.45 82.935,184.117 83,186.5C 86.5039,188.612 89.5039,191.279 92,194.5C 95.8262,195.422 99.3262,197.589 102.5,201C 103.793,201.49 105.127,201.657 106.5,201.5C 111.634,204.473 117.301,206.306 123.5,207C 124.056,207.383 124.389,207.883 124.5,208.5C 119.431,208.04 114.431,208.04 109.5,208.5C 107.831,207.11 106.164,206.777 104.5,207.5C 100.837,206.161 97.1707,205.828 93.5,206.5C 91.6789,204.757 89.6789,203.257 87.5,202C 87.8333,201.667 88.1667,201.333 88.5,201C 82.4728,195.609 77.1395,189.609 72.5,183C 68.4305,180.796 64.2638,178.629 60,176.5C 59.586,176.957 59.086,177.291 58.5,177.5C 55.2372,175.905 52.0705,174.239 49,172.5C 47.187,173.609 46.3537,172.942 46.5,170.5C 44.4078,170.439 42.9078,169.439 42,167.5C 41.3162,166.216 41.4829,165.049 42.5,164C 41.0459,161.413 39.3792,158.913 37.5,156.5C 37.7093,155.914 38.0426,155.414 38.5,155C 37.1667,154 35.8333,153 34.5,152C 35.6684,149.429 35.0018,146.763 32.5,144C 34.5127,142.209 34.5127,140.875 32.5,140C 32.5469,135.145 32.8802,129.979 33.5,124.5C 33.1822,123.353 32.5156,122.519 31.5,122C 33.032,121.3 34.032,120.134 34.5,118.5C 33.9378,115.568 34.6045,112.735 36.5,110C 35.4744,106.409 36.4744,103.409 39.5,101C 38.8288,100.014 38.8288,98.8471 39.5,97.5C 40.4959,97.5858 41.3292,97.2524 42,96.5C 44.698,98.4038 47.698,99.7371 51,100.5C 52.0299,100.164 52.5299,99.4972 52.5,98.5 Z"/></g>
<g><path style="opacity:1" fill="#fed747" d="M 64.5,105.5 C 64.5,105.833 64.5,106.167 64.5,106.5C 63.3471,110.202 62.3471,114.035 61.5,118C 63.7124,119.628 64.0458,121.628 62.5,124C 63.5759,127.135 64.5759,130.302 65.5,133.5C 65.2907,134.086 64.9574,134.586 64.5,135C 65.9987,136.797 67.4987,138.631 69,140.5C 71.4706,144.455 73.1372,148.788 74,153.5C 75.016,154.634 75.6827,154.301 76,152.5C 76.6838,153.784 76.5171,154.951 75.5,156C 76.7604,157.113 77.927,157.28 79,156.5C 79.7845,158.286 80.9512,159.786 82.5,161C 81.4829,162.049 81.3162,163.216 82,164.5C 83.2975,163.216 84.4642,163.383 85.5,165C 84.8333,165.333 84.1667,165.667 83.5,166C 84.9308,166.465 86.0975,167.299 87,168.5C 87.3333,168.167 87.6667,167.833 88,167.5C 89.117,168.949 89.7837,170.616 90,172.5C 90.9745,170.122 91.6411,170.456 92,173.5C 96.4216,177.474 101.588,179.808 107.5,180.5C 106.603,185.14 106.436,189.806 107,194.5C 108.011,195.337 109.178,195.67 110.5,195.5C 110.539,196.583 110.873,197.583 111.5,198.5C 109.577,199.308 107.577,199.808 105.5,200C 106.056,200.383 106.389,200.883 106.5,201.5C 105.127,201.657 103.793,201.49 102.5,201C 99.3262,197.589 95.8262,195.422 92,194.5C 89.5039,191.279 86.5039,188.612 83,186.5C 82.935,184.117 82.1017,183.45 80.5,184.5C 79.4789,182.381 77.9789,180.714 76,179.5C 75.6667,179.833 75.3333,180.167 75,180.5C 73.6667,178.5 72.3333,176.5 71,174.5C 70.586,174.957 70.086,175.291 69.5,175.5C 69.4707,174.166 68.6373,172.833 67,171.5C 66.2825,172.451 65.4491,172.617 64.5,172C 62.8753,171.147 62.5419,170.147 63.5,169C 60.504,168.478 58.1707,166.978 56.5,164.5C 56.7093,163.914 57.0426,163.414 57.5,163C 56.2567,161.846 55.2567,160.512 54.5,159C 53.5509,158.383 52.7175,158.549 52,159.5C 51.3828,158.551 51.5494,157.718 52.5,157C 51.8333,156.667 51.1667,156.333 50.5,156C 52.8776,155.026 52.5443,154.359 49.5,154C 49.8333,153.667 50.1667,153.333 50.5,153C 49.2986,152.097 48.4652,150.931 48,149.5C 46.9878,145.117 45.8212,140.784 44.5,136.5C 45.1901,133.932 45.5234,131.432 45.5,129C 44.6433,128.311 43.9767,127.478 43.5,126.5C 44.7113,125.126 45.7113,123.626 46.5,122C 46.1081,120.989 45.4415,120.489 44.5,120.5C 45.8897,118.831 46.2231,117.164 45.5,115.5C 46.9033,111.023 49.0699,107.023 52,103.5C 54.3556,104.029 56.8556,104.029 59.5,103.5C 61.6397,103.556 63.3064,104.223 64.5,105.5 Z"/></g>
<g><path style="opacity:0.978" fill="#feab16" d="M 299.5,104.5 C 304.506,114.849 307.506,125.849 308.5,137.5C 309.031,167.723 300.531,194.056 283,216.5C 273.615,225.531 263.948,232.864 254,238.5C 253.667,238.167 253.333,237.833 253,237.5C 249.093,240.021 245.093,242.355 241,244.5C 240.586,244.043 240.086,243.709 239.5,243.5C 235.766,244.653 231.933,246.32 228,248.5C 227.439,247.978 226.772,247.645 226,247.5C 214.386,250.82 202.719,253.82 191,256.5C 189.984,255.366 189.317,255.699 189,257.5C 182.906,256.469 176.906,256.469 171,257.5C 170.072,255.665 168.906,255.332 167.5,256.5C 166.295,255.423 165.628,254.09 165.5,252.5C 168.431,250.909 171.098,248.909 173.5,246.5C 175.111,247.32 175.778,248.654 175.5,250.5C 178.91,250.782 182.243,251.449 185.5,252.5C 189.43,251.352 193.264,250.018 197,248.5C 197.561,249.022 198.228,249.355 199,249.5C 213.835,245.739 228.669,241.239 243.5,236C 254.854,231.669 265.187,225.669 274.5,218C 275.448,217.517 276.448,217.351 277.5,217.5C 278.466,213.923 280.633,211.257 284,209.5C 285.558,205.611 287.891,202.278 291,199.5C 304.344,174.484 308.177,148.484 302.5,121.5C 302.709,120.914 303.043,120.414 303.5,120C 302.204,115.155 300.537,110.488 298.5,106C 299.056,105.617 299.389,105.117 299.5,104.5 Z"/></g>
<g><path style="opacity:1" fill="#212642" d="M 194.5,99.5 C 194.56,102.341 195.226,105.007 196.5,107.5C 190.556,113.725 190.056,120.392 195,127.5C 199.326,133.402 205.159,135.569 212.5,134C 219.384,131.246 222.718,126.08 222.5,118.5C 222.406,116.077 221.906,113.744 221,111.5C 217.443,108.482 213.609,106.149 209.5,104.5C 209.883,97.5493 206.549,94.216 199.5,94.5C 203.666,92.2868 207.666,92.1201 211.5,94C 225.071,103.569 228.404,116.069 221.5,131.5C 218.286,132.44 215.286,133.94 212.5,136C 208.167,136.667 203.833,136.667 199.5,136C 197.009,132.51 194.175,129.343 191,126.5C 188.053,116.751 189.22,107.751 194.5,99.5 Z"/></g>
<g><path style="opacity:1" fill="#2b3253" d="M 209.5,104.5 C 213.609,106.149 217.443,108.482 221,111.5C 221.906,113.744 222.406,116.077 222.5,118.5C 222.718,126.08 219.384,131.246 212.5,134C 205.159,135.569 199.326,133.402 195,127.5C 190.056,120.392 190.556,113.725 196.5,107.5C 201.783,110.674 206.116,109.674 209.5,104.5 Z"/></g>
<g><path style="opacity:0.923" fill="#fda714" d="M 17.5,107.5 C 18.0967,107.735 18.4301,108.235 18.5,109C 16.7716,113.193 16.1049,117.36 16.5,121.5C 9.98572,148.282 13.8191,174.282 28,199.5C 31.242,202.205 34.742,204.539 38.5,206.5C 40.6283,205.946 42.1283,204.613 43,202.5C 44.6667,197.833 46.3333,193.167 48,188.5C 48.6708,187.748 49.5041,187.414 50.5,187.5C 47.6323,194.928 44.4657,202.261 41,209.5C 39.9509,211.618 38.4509,213.284 36.5,214.5C 31.0587,215.229 26.7253,213.229 23.5,208.5C 18.0242,197.708 13.3576,186.708 9.5,175.5C 7.02794,152.219 9.69461,129.552 17.5,107.5 Z"/></g>
<g><path style="opacity:1" fill="#373f66" d="M 205.5,112.5 C 217.347,112.623 220.847,117.956 216,128.5C 210.965,133.232 205.465,133.732 199.5,130C 193.123,121.26 195.123,115.426 205.5,112.5 Z"/></g>
<g><path style="opacity:1" fill="#feda4e" d="M 224.5,72.5 C 231.04,74.0613 237.373,75.3946 243.5,76.5C 248.08,79.6522 251.747,83.1522 254.5,87C 253.833,87.3333 253.167,87.6667 252.5,88C 254,88.8333 255.167,90 256,91.5C 257.226,94.9518 258.726,98.2852 260.5,101.5C 259.126,103.967 259.793,105.801 262.5,107C 261.833,108 261.167,109 260.5,110C 262.01,111.351 263.01,113.018 263.5,115C 260.515,116.776 259.849,119.776 261.5,124C 261.149,126.193 260.149,128.026 258.5,129.5C 261.797,130.142 262.131,131.309 259.5,133C 260.352,137.672 259.352,142.005 256.5,146C 256.957,146.414 257.291,146.914 257.5,147.5C 256.431,147.36 255.264,147.36 254,147.5C 253.506,149.134 253.34,150.801 253.5,152.5C 252.325,152.281 251.325,152.614 250.5,153.5C 251.718,154.803 251.385,155.803 249.5,156.5C 250.326,157.451 250.492,158.451 250,159.5C 248.434,158.939 247.101,159.606 246,161.5C 243.892,163.807 242.559,166.14 242,168.5C 241.667,168.167 241.333,167.833 241,167.5C 236.044,171.89 230.877,176.723 225.5,182C 224.552,182.483 223.552,182.649 222.5,182.5C 222.587,185.598 222.087,185.932 221,183.5C 218.306,186.435 215.14,188.768 211.5,190.5C 210.746,193.777 210.246,197.11 210,200.5C 209.31,201.738 208.81,201.738 208.5,200.5C 209.828,196.269 209.495,192.103 207.5,188C 208.896,185.765 210.896,184.598 213.5,184.5C 213.5,183.5 213.5,182.5 213.5,181.5C 215.903,181.607 217.736,180.607 219,178.5C 219.333,178.833 219.667,179.167 220,179.5C 220.699,175.375 222.865,173.541 226.5,174C 227.094,172.018 228.26,170.184 230,168.5C 230.333,168.833 230.667,169.167 231,169.5C 233.614,167.944 234.947,165.61 235,162.5C 237,161.167 239,159.833 241,158.5C 242.553,155.32 243.719,151.986 244.5,148.5C 245.425,147.359 246.259,147.359 247,148.5C 247.684,147.216 247.517,146.049 246.5,145C 249.21,143.54 249.876,141.54 248.5,139C 250.394,137.921 250.727,136.587 249.5,135C 250.253,133.513 251.086,133.346 252,134.5C 252.684,132.521 252.184,130.854 250.5,129.5C 251.529,129.704 252.529,129.204 253.5,128C 253.614,125.189 253.281,122.522 252.5,120C 254.781,118.149 254.781,116.482 252.5,115C 252.902,111.602 252.902,107.936 252.5,104C 250.907,101.594 249.24,99.0944 247.5,96.5C 249.124,95.1311 249.624,93.4645 249,91.5C 247.525,95.2515 246.025,95.0848 244.5,91C 245.424,89.85 245.424,88.85 244.5,88C 245.167,87.6667 245.833,87.3333 246.5,87C 245.23,86.1004 244.23,84.9337 243.5,83.5C 237.595,79.0488 231.261,75.3821 224.5,72.5 Z"/></g>
<g><path style="opacity:1" fill="#1d2033" d="M 77.5,98.5 C 86.1118,97.2319 94.7785,97.7319 103.5,100C 104.664,102.328 106.33,104.162 108.5,105.5C 109.338,105.842 109.672,106.508 109.5,107.5C 109.872,131.933 98.2056,140.433 74.5,133C 69.7327,130.633 67.066,126.8 66.5,121.5C 67.0971,114.819 67.9304,108.152 69,101.5C 70.4098,98.864 72.2431,98.1974 74.5,99.5C 74.5,100.833 74.5,102.167 74.5,103.5C 72.9193,107.919 71.586,112.419 70.5,117C 71.2129,123.026 74.2129,127.36 79.5,130C 86.3667,131.034 93.0333,130.367 99.5,128C 105.443,120.897 106.109,113.23 101.5,105C 97.5894,103.192 93.5894,101.692 89.5,100.5C 85.9707,98.5772 81.9707,97.9106 77.5,98.5 Z"/></g>
<g><path style="opacity:1" fill="#2b3151" d="M 89.5,100.5 C 93.5894,101.692 97.5894,103.192 101.5,105C 106.109,113.23 105.443,120.897 99.5,128C 93.0333,130.367 86.3667,131.034 79.5,130C 74.2129,127.36 71.2129,123.026 70.5,117C 71.586,112.419 72.9193,107.919 74.5,103.5C 77.5568,110.21 82.0568,111.21 88,106.5C 88.813,104.564 89.313,102.564 89.5,100.5 Z"/></g>
<g><path style="opacity:1" fill="#373f66" d="M 81.5,111.5 C 86.2675,111.191 90.9342,111.691 95.5,113C 100.76,122.306 97.9265,127.472 87,128.5C 77.809,128.337 74.4757,124.004 77,115.5C 78.3968,113.93 79.8968,112.596 81.5,111.5 Z"/></g>
<g><path style="opacity:1" fill="#504d5c" d="M 77.5,98.5 C 81.9707,97.9106 85.9707,98.5772 89.5,100.5C 89.313,102.564 88.813,104.564 88,106.5C 82.0568,111.21 77.5568,110.21 74.5,103.5C 74.5,102.167 74.5,100.833 74.5,99.5C 75.391,98.8902 76.391,98.5569 77.5,98.5 Z"/></g>
<g><path style="opacity:0.981" fill="#fca512" d="M 308.5,137.5 C 309.617,142.973 310.283,148.64 310.5,154.5C 308.629,162.674 306.796,171.008 305,179.5C 298.507,203.654 285.507,222.654 266,236.5C 260.926,240.623 255.426,244.123 249.5,247C 243.539,248.375 237.705,250.875 232,254.5C 229.602,254.065 227.269,254.731 225,256.5C 224.586,256.043 224.086,255.709 223.5,255.5C 219.154,257.956 214.654,259.289 210,259.5C 208.601,259.499 207.101,259.165 205.5,258.5C 204.808,259.025 204.308,259.692 204,260.5C 202.6,259.884 201.1,259.551 199.5,259.5C 189.945,261.809 180.112,263.142 170,263.5C 168.188,263.507 166.688,262.84 165.5,261.5C 164.549,262.326 163.549,262.492 162.5,262C 161.213,260.59 160.046,259.09 159,257.5C 158.333,258.833 157.667,260.167 157,261.5C 155.541,259.568 154.375,257.568 153.5,255.5C 152.621,252.883 152.788,250.216 154,247.5C 158.733,244.269 162.566,240.269 165.5,235.5C 166.324,232.236 166.658,228.902 166.5,225.5C 167.682,231.301 168.348,237.301 168.5,243.5C 166.9,244.682 166.567,246.015 167.5,247.5C 166.544,249.075 165.877,250.742 165.5,252.5C 165.628,254.09 166.295,255.423 167.5,256.5C 168.906,255.332 170.072,255.665 171,257.5C 176.906,256.469 182.906,256.469 189,257.5C 189.317,255.699 189.984,255.366 191,256.5C 202.719,253.82 214.386,250.82 226,247.5C 226.772,247.645 227.439,247.978 228,248.5C 231.933,246.32 235.766,244.653 239.5,243.5C 240.086,243.709 240.586,244.043 241,244.5C 245.093,242.355 249.093,240.021 253,237.5C 253.333,237.833 253.667,238.167 254,238.5C 263.948,232.864 273.615,225.531 283,216.5C 300.531,194.056 309.031,167.723 308.5,137.5 Z"/></g>
<g><path style="opacity:1" fill="#fede59" d="M 64.5,106.5 C 64.5,109.833 64.5,113.167 64.5,116.5C 64.1796,119.898 64.513,123.232 65.5,126.5C 68.2177,130.375 70.551,134.375 72.5,138.5C 79.8562,141.743 87.3562,143.41 95,143.5C 96.3086,145.891 97.3086,145.891 98,143.5C 99.5385,144.546 99.7052,145.879 98.5,147.5C 98.8561,150.688 100.523,152.855 103.5,154C 100.724,155.779 101.057,156.779 104.5,157C 104.043,157.414 103.709,157.914 103.5,158.5C 106.569,162.453 110.235,166.62 114.5,171C 116.833,172.667 119.167,174.333 121.5,176C 120.5,176.333 119.5,176.667 118.5,177C 120.973,177.22 122.64,178.386 123.5,180.5C 120.482,180.335 117.482,180.502 114.5,181C 112.68,181.2 111.347,182.034 110.5,183.5C 107.833,187.5 107.833,191.5 110.5,195.5C 109.178,195.67 108.011,195.337 107,194.5C 106.436,189.806 106.603,185.14 107.5,180.5C 101.588,179.808 96.4216,177.474 92,173.5C 91.6411,170.456 90.9745,170.122 90,172.5C 89.7837,170.616 89.117,168.949 88,167.5C 87.6667,167.833 87.3333,168.167 87,168.5C 86.0975,167.299 84.9308,166.465 83.5,166C 84.1667,165.667 84.8333,165.333 85.5,165C 84.4642,163.383 83.2975,163.216 82,164.5C 81.3162,163.216 81.4829,162.049 82.5,161C 80.9512,159.786 79.7845,158.286 79,156.5C 77.927,157.28 76.7604,157.113 75.5,156C 76.5171,154.951 76.6838,153.784 76,152.5C 75.6827,154.301 75.016,154.634 74,153.5C 73.1372,148.788 71.4706,144.455 69,140.5C 67.4987,138.631 65.9987,136.797 64.5,135C 64.9574,134.586 65.2907,134.086 65.5,133.5C 64.5759,130.302 63.5759,127.135 62.5,124C 64.0458,121.628 63.7124,119.628 61.5,118C 62.3471,114.035 63.3471,110.202 64.5,106.5 Z"/></g>
<g><path style="opacity:0.981" fill="#fe9f0f" d="M 310.5,154.5 C 310.713,161.211 310.38,167.877 309.5,174.5C 294.726,225.517 262.559,255.517 213,264.5C 212.323,266.689 211.156,267.022 209.5,265.5C 208.833,266.167 208.167,266.833 207.5,267.5C 204.63,267.413 201.797,267.413 199,267.5C 198.667,268.167 198.333,268.833 198,269.5C 194.519,268.648 190.853,268.315 187,268.5C 184.835,270.964 182.835,270.964 181,268.5C 178.657,269.127 176.49,270.127 174.5,271.5C 173.522,271.023 172.689,270.357 172,269.5C 171.692,270.308 171.192,270.975 170.5,271.5C 164.524,270.913 160.358,267.913 158,262.5C 157.667,264.833 157.333,267.167 157,269.5C 155.684,266.367 154.184,263.367 152.5,260.5C 152.629,258.784 152.962,257.117 153.5,255.5C 154.375,257.568 155.541,259.568 157,261.5C 157.667,260.167 158.333,258.833 159,257.5C 160.046,259.09 161.213,260.59 162.5,262C 163.549,262.492 164.549,262.326 165.5,261.5C 166.688,262.84 168.188,263.507 170,263.5C 180.112,263.142 189.945,261.809 199.5,259.5C 201.1,259.551 202.6,259.884 204,260.5C 204.308,259.692 204.808,259.025 205.5,258.5C 207.101,259.165 208.601,259.499 210,259.5C 214.654,259.289 219.154,257.956 223.5,255.5C 224.086,255.709 224.586,256.043 225,256.5C 227.269,254.731 229.602,254.065 232,254.5C 237.705,250.875 243.539,248.375 249.5,247C 255.426,244.123 260.926,240.623 266,236.5C 285.507,222.654 298.507,203.654 305,179.5C 306.796,171.008 308.629,162.674 310.5,154.5 Z"/></g>
<g><path style="opacity:1" fill="#fee56a" d="M 229.5,107.5 C 230.186,113.234 230.852,119.067 231.5,125C 229.862,127.133 229.029,129.633 229,132.5C 226.565,136.402 224.565,140.068 223,143.5C 219.9,144.884 218.733,147.051 219.5,150C 218.257,151.154 217.257,152.488 216.5,154C 217.167,154.333 217.833,154.667 218.5,155C 215.312,157.354 212.645,160.188 210.5,163.5C 209.675,164.386 208.675,164.719 207.5,164.5C 207.657,165.873 207.49,167.207 207,168.5C 205.757,170.833 204.091,171.5 202,170.5C 201.552,172.224 200.718,172.891 199.5,172.5C 200.629,174.529 200.129,174.863 198,173.5C 196.89,175.037 195.39,175.703 193.5,175.5C 193.915,178.368 192.915,180.535 190.5,182C 191.381,182.708 192.047,183.542 192.5,184.5C 180.36,187.52 168.027,188.853 155.5,188.5C 152.833,188.5 150.167,188.5 147.5,188.5C 145.784,188.371 144.117,188.038 142.5,187.5C 138.498,185.39 134.165,184.057 129.5,183.5C 127.456,182.492 125.456,181.492 123.5,180.5C 122.64,178.386 120.973,177.22 118.5,177C 119.5,176.667 120.5,176.333 121.5,176C 119.167,174.333 116.833,172.667 114.5,171C 110.235,166.62 106.569,162.453 103.5,158.5C 103.709,157.914 104.043,157.414 104.5,157C 101.057,156.779 100.724,155.779 103.5,154C 100.523,152.855 98.8561,150.688 98.5,147.5C 99.7052,145.879 99.5385,144.546 98,143.5C 97.3086,145.891 96.3086,145.891 95,143.5C 87.3562,143.41 79.8562,141.743 72.5,138.5C 72.3691,137.624 72.7025,136.957 73.5,136.5C 83.2018,140.669 93.2018,141.503 103.5,139C 105.369,136.686 107.369,136.353 109.5,138C 108.802,138.971 108.802,140.137 109.5,141.5C 110.942,145.09 112.942,148.257 115.5,151C 114.483,152.049 114.316,153.216 115,154.5C 121.728,160.098 129.228,164.598 137.5,168C 140.867,172.385 145.033,175.552 150,177.5C 153.013,176.984 155.68,177.984 158,180.5C 158.936,178.292 160.602,176.958 163,176.5C 165.098,178.049 167.432,179.049 170,179.5C 175.858,174.66 182.692,171.493 190.5,170C 193.167,168.667 193.167,167.333 190.5,166C 195.398,161.498 199.565,156.998 203,152.5C 203.333,152.833 203.667,153.167 204,153.5C 204.923,152.241 205.757,150.908 206.5,149.5C 211.289,147.272 215.955,144.772 220.5,142C 223.264,138.916 225.264,135.416 226.5,131.5C 227.598,128.247 228.264,124.914 228.5,121.5C 229.127,116.859 229.46,112.193 229.5,107.5 Z"/></g>
<g><path style="opacity:1" fill="#f4bc24" d="M 52.5,179.5 C 55.9099,179.457 59.2432,179.957 62.5,181C 67.8927,183.726 72.726,187.226 77,191.5C 80.3034,196.969 83.8034,202.302 87.5,207.5C 88.914,208.624 90.414,209.624 92,210.5C 104.801,209.641 117.968,209.641 131.5,210.5C 132.873,210.343 134.207,210.51 135.5,211C 131.975,211.179 128.641,211.679 125.5,212.5C 114.107,214.515 102.774,216.848 91.5,219.5C 86.4982,219.494 82.3315,217.494 79,213.5C 76.554,209.343 74.3873,205.01 72.5,200.5C 70.5186,196.87 67.8519,193.87 64.5,191.5C 61.3709,187.897 57.3709,186.231 52.5,186.5C 54.2922,185.691 56.2922,185.191 58.5,185C 55.8333,184.333 53.1667,184.333 50.5,185C 48.0302,185.989 45.6968,187.155 43.5,188.5C 44.1175,186.771 45.1175,185.271 46.5,184C 46.2716,183.601 45.9382,183.435 45.5,183.5C 47.8333,182.167 50.1667,180.833 52.5,179.5 Z"/></g>
<g><path style="opacity:1" fill="#ba9037" d="M 129.5,183.5 C 134.165,184.057 138.498,185.39 142.5,187.5C 137.835,186.943 133.502,185.61 129.5,183.5 Z"/></g>
<g><path style="opacity:0.985" fill="#fe9209" d="M 307.5,188.5 C 306.746,194.859 305.08,200.859 302.5,206.5C 292.681,223.18 280.681,238.346 266.5,252C 244.449,269.418 220.449,280.584 194.5,285.5C 193.914,285.291 193.414,284.957 193,284.5C 187.31,285.761 181.643,287.094 176,288.5C 175.667,287.833 175.333,287.167 175,286.5C 174,287.833 173,287.833 172,286.5C 169.667,287.167 167.333,287.833 165,288.5C 163.225,286.606 161.225,284.939 159,283.5C 158.71,281.956 158.044,280.623 157,279.5C 156.667,281.5 156.333,283.5 156,285.5C 154.829,281.482 153.663,277.482 152.5,273.5C 152.34,271.801 152.506,270.134 153,268.5C 153.881,271.302 155.215,274.302 157,277.5C 157.333,275.5 157.667,273.5 158,271.5C 159.821,276.107 163.155,279.107 168,280.5C 170.978,280.672 173.978,280.005 177,278.5C 177.667,281.167 178.333,281.167 179,278.5C 180.268,278.616 181.602,278.949 183,279.5C 186,278.833 189,278.167 192,277.5C 192.333,277.833 192.667,278.167 193,278.5C 196.404,275.91 200.07,275.243 204,276.5C 205.676,275.939 207.009,274.939 208,273.5C 208.308,274.308 208.808,274.975 209.5,275.5C 210.82,273.73 212.32,273.397 214,274.5C 214.667,273.833 215.333,273.167 216,272.5C 217.425,271.921 219.092,271.921 221,272.5C 227.318,268.834 233.651,265.834 240,263.5C 240.333,263.833 240.667,264.167 241,264.5C 242,263.167 243,261.833 244,260.5C 244.414,260.957 244.914,261.291 245.5,261.5C 266.004,250.165 282.504,234.498 295,214.5C 299.487,205.864 303.653,197.197 307.5,188.5 Z"/></g>
<g><path style="opacity:1" fill="#511112" d="M 123.5,180.5 C 125.456,181.492 127.456,182.492 129.5,183.5C 133.502,185.61 137.835,186.943 142.5,187.5C 144.117,188.038 145.784,188.371 147.5,188.5C 153.427,190.007 159.594,190.674 166,190.5C 170.347,190.499 174.514,190.166 178.5,189.5C 186.196,187.24 193.863,186.573 201.5,187.5C 196.167,187.833 196.167,188.167 201.5,188.5C 201.896,191.044 201.229,193.211 199.5,195C 191.007,197.415 182.34,198.749 173.5,199C 156.336,200.358 139.336,199.358 122.5,196C 118.887,193.947 115.387,191.781 112,189.5C 111.349,187.765 111.515,186.098 112.5,184.5C 112.043,183.702 111.376,183.369 110.5,183.5C 111.347,182.034 112.68,181.2 114.5,181C 117.482,180.502 120.482,180.335 123.5,180.5 Z"/></g>
<g><path style="opacity:1" fill="#641715" d="M 115.5,182.5 C 127.099,183.802 137.765,187.635 147.5,194C 136.141,196.633 125.308,194.8 115,188.5C 114.322,186.402 114.489,184.402 115.5,182.5 Z"/></g>
<g><path style="opacity:1" fill="#3d0b0e" d="M 110.5,183.5 C 111.376,183.369 112.043,183.702 112.5,184.5C 111.515,186.098 111.349,187.765 112,189.5C 115.387,191.781 118.887,193.947 122.5,196C 139.336,199.358 156.336,200.358 173.5,199C 182.34,198.749 191.007,197.415 199.5,195C 201.229,193.211 201.896,191.044 201.5,188.5C 196.167,188.167 196.167,187.833 201.5,187.5C 202.492,187.328 203.158,187.662 203.5,188.5C 204.167,190.167 204.833,191.833 205.5,193.5C 205.489,195.017 204.823,196.184 203.5,197C 201.283,198.275 198.949,199.275 196.5,200C 172.141,204.489 147.808,204.489 123.5,200C 120.442,198.985 117.442,197.819 114.5,196.5C 113.893,196.624 113.56,196.957 113.5,197.5C 112.5,196.833 111.5,196.167 110.5,195.5C 107.833,191.5 107.833,187.5 110.5,183.5 Z"/></g>
<g><path style="opacity:1" fill="#926a27" d="M 147.5,188.5 C 150.167,188.5 152.833,188.5 155.5,188.5C 162.982,189.492 170.648,189.825 178.5,189.5C 174.514,190.166 170.347,190.499 166,190.5C 159.594,190.674 153.427,190.007 147.5,188.5 Z"/></g>
<g><path style="opacity:1" fill="#efc541" d="M 110.5,195.5 C 111.5,196.167 112.5,196.833 113.5,197.5C 116.688,198.925 119.688,200.592 122.5,202.5C 127.79,205.265 133.457,207.265 139.5,208.5C 140.842,209.793 142.509,210.626 144.5,211C 148.486,211.499 152.486,211.666 156.5,211.5C 156.5,211.833 156.5,212.167 156.5,212.5C 153.615,212.194 150.948,212.527 148.5,213.5C 143.537,212.746 138.537,212.413 133.5,212.5C 130.833,212.5 128.167,212.5 125.5,212.5C 128.641,211.679 131.975,211.179 135.5,211C 134.207,210.51 132.873,210.343 131.5,210.5C 129.562,208.837 127.228,208.171 124.5,208.5C 124.389,207.883 124.056,207.383 123.5,207C 117.301,206.306 111.634,204.473 106.5,201.5C 106.389,200.883 106.056,200.383 105.5,200C 107.577,199.808 109.577,199.308 111.5,198.5C 110.873,197.583 110.539,196.583 110.5,195.5 Z"/></g>
<g><path style="opacity:1" fill="#2c070a" d="M 205.5,193.5 C 206.461,195.265 206.795,197.265 206.5,199.5C 195.831,202.667 184.998,205 174,206.5C 165.333,206.5 156.667,206.5 148,206.5C 140.699,205.539 133.533,203.872 126.5,201.5C 124.955,201.511 123.622,201.844 122.5,202.5C 119.688,200.592 116.688,198.925 113.5,197.5C 113.56,196.957 113.893,196.624 114.5,196.5C 117.442,197.819 120.442,198.985 123.5,200C 147.808,204.489 172.141,204.489 196.5,200C 198.949,199.275 201.283,198.275 203.5,197C 204.823,196.184 205.489,195.017 205.5,193.5 Z"/></g>
<g><path style="opacity:0.989" fill="#fd8c06" d="M 302.5,206.5 C 301.296,211.895 299.296,216.895 296.5,221.5C 287.806,232.708 278.473,243.541 268.5,254C 243.649,274.863 214.983,287.863 182.5,293C 176.883,294.144 171.383,294.644 166,294.5C 162.108,294.015 159.108,291.681 157,287.5C 156.209,288.745 155.709,290.078 155.5,291.5C 152.297,286.048 150.464,280.048 150,273.5C 149.667,275.833 149.333,278.167 149,280.5C 146.892,270.344 143.725,260.677 139.5,251.5C 139.5,250.833 139.5,250.167 139.5,249.5C 142.75,253.669 145.75,258.002 148.5,262.5C 149.693,266.307 151.026,269.974 152.5,273.5C 153.663,277.482 154.829,281.482 156,285.5C 156.333,283.5 156.667,281.5 157,279.5C 158.044,280.623 158.71,281.956 159,283.5C 161.225,284.939 163.225,286.606 165,288.5C 167.333,287.833 169.667,287.167 172,286.5C 173,287.833 174,287.833 175,286.5C 175.333,287.167 175.667,287.833 176,288.5C 181.643,287.094 187.31,285.761 193,284.5C 193.414,284.957 193.914,285.291 194.5,285.5C 220.449,280.584 244.449,269.418 266.5,252C 280.681,238.346 292.681,223.18 302.5,206.5 Z"/></g>
<g><path style="opacity:1" fill="#1a0405" d="M 203.5,188.5 C 207.437,191.644 208.77,195.644 207.5,200.5C 203.434,203.405 199.1,205.738 194.5,207.5C 182.032,210.353 169.366,211.687 156.5,211.5C 150.927,210.7 145.261,209.7 139.5,208.5C 133.457,207.265 127.79,205.265 122.5,202.5C 123.622,201.844 124.955,201.511 126.5,201.5C 133.533,203.872 140.699,205.539 148,206.5C 156.667,206.5 165.333,206.5 174,206.5C 184.998,205 195.831,202.667 206.5,199.5C 206.795,197.265 206.461,195.265 205.5,193.5C 204.833,191.833 204.167,190.167 203.5,188.5 Z"/></g>
<g><path style="opacity:1" fill="#fc940a" d="M 9.5,175.5 C 13.3576,186.708 18.0242,197.708 23.5,208.5C 26.7253,213.229 31.0587,215.229 36.5,214.5C 32.4718,218.859 28.4718,223.193 24.5,227.5C 16.2645,211.124 11.2645,193.79 9.5,175.5 Z"/></g>
<g><path style="opacity:1" fill="#725310" d="M 139.5,208.5 C 145.261,209.7 150.927,210.7 156.5,211.5C 152.486,211.666 148.486,211.499 144.5,211C 142.509,210.626 140.842,209.793 139.5,208.5 Z"/></g>
<g><path style="opacity:1" fill="#b38918" d="M 194.5,207.5 C 190.785,209.405 186.785,210.738 182.5,211.5C 173.862,212.34 165.195,212.673 156.5,212.5C 156.5,212.167 156.5,211.833 156.5,211.5C 169.366,211.687 182.032,210.353 194.5,207.5 Z"/></g>
<g><path style="opacity:1" fill="#c6cddb" d="M 66.5,209.5 C 66.3353,216.678 63.6686,222.678 58.5,227.5C 52.1957,227.828 46.1957,229.328 40.5,232C 37.7728,232.818 35.1062,232.652 32.5,231.5C 39.6336,226.762 46.9669,222.262 54.5,218C 60.8668,213.322 64.7001,207.155 66,199.5C 66.4983,202.817 66.665,206.15 66.5,209.5 Z"/></g>
<g><path style="opacity:1" fill="#eaa510" d="M 64.5,191.5 C 67.8519,193.87 70.5186,196.87 72.5,200.5C 74.3873,205.01 76.554,209.343 79,213.5C 82.3315,217.494 86.4982,219.494 91.5,219.5C 87.8018,220.373 84.1351,221.373 80.5,222.5C 78.4437,221.784 76.277,221.117 74,220.5C 70.3435,213.298 68.3435,205.632 68,197.5C 67.7216,196.584 67.2216,195.918 66.5,195.5C 65.3263,194.486 64.6596,193.153 64.5,191.5 Z"/></g>
<g><path style="opacity:1" fill="#eef0f4" d="M 125.5,212.5 C 128.167,212.5 130.833,212.5 133.5,212.5C 135.858,214.129 138.524,215.295 141.5,216C 144.353,218.133 144.853,220.967 143,224.5C 139.918,225.909 137.085,227.742 134.5,230C 126.972,230.727 120.305,233.393 114.5,238C 110.302,239.539 106.302,241.372 102.5,243.5C 101.833,243.5 101.167,243.5 100.5,243.5C 102.151,242.03 103.985,240.697 106,239.5C 106.684,238.216 106.517,237.049 105.5,236C 110.368,234.443 111.368,231.609 108.5,227.5C 107.914,227.709 107.414,228.043 107,228.5C 106.425,225.203 104.425,223.536 101,223.5C 91.518,224.499 82.018,226.499 72.5,229.5C 71.914,229.291 71.414,228.957 71,228.5C 66.7038,229.685 62.3704,230.685 58,231.5C 53.0818,231.711 49.7484,234.377 48,239.5C 46.7567,238.664 45.5901,238.997 44.5,240.5C 44.7093,241.086 45.0426,241.586 45.5,242C 38.1001,246.921 37.7667,252.255 44.5,258C 42.6161,258.216 40.9494,258.883 39.5,260C 46.4376,267.937 54.7709,273.937 64.5,278C 67.85,278.93 70.6833,278.097 73,275.5C 74.1313,276.604 74.9646,276.271 75.5,274.5C 74.9598,273.252 74.2931,272.085 73.5,271C 79.7685,268.611 85.9351,266.111 92,263.5C 95.3834,264.908 98.2168,264.075 100.5,261C 100.043,260.586 99.7093,260.086 99.5,259.5C 101.5,258.167 103.167,256.5 104.5,254.5C 103.907,252.618 103.24,250.785 102.5,249C 100.048,248.71 97.7148,248.044 95.5,247C 96.5266,246.487 97.5266,245.987 98.5,245.5C 103.316,247.177 108.483,248.177 114,248.5C 118.798,247.447 123.631,247.614 128.5,249C 128.957,249.414 129.291,249.914 129.5,250.5C 128.547,252.455 127.213,254.122 125.5,255.5C 115.74,262.097 105.406,267.764 94.5,272.5C 93.6667,273.5 92.8333,274.5 92,275.5C 91.7457,278.195 91.579,280.695 91.5,283C 84.7926,284.674 78.7926,287.674 73.5,292C 66.0276,292.577 59.0276,291.077 52.5,287.5C 51.914,287.709 51.414,288.043 51,288.5C 48.2979,284.397 44.4646,282.231 39.5,282C 36.628,279.463 34.128,276.63 32,273.5C 28.663,265.803 26.4963,257.803 25.5,249.5C 26.4651,245.052 28.1317,240.886 30.5,237C 40.3569,232.879 50.3569,229.712 60.5,227.5C 67.0418,225.432 73.7084,223.766 80.5,222.5C 84.1351,221.373 87.8018,220.373 91.5,219.5C 102.774,216.848 114.107,214.515 125.5,212.5 Z"/></g>
<g><path style="opacity:1" fill="#fe990c" d="M 309.5,174.5 C 309.477,179.297 308.811,183.964 307.5,188.5C 303.653,197.197 299.487,205.864 295,214.5C 282.504,234.498 266.004,250.165 245.5,261.5C 244.914,261.291 244.414,260.957 244,260.5C 243,261.833 242,263.167 241,264.5C 240.667,264.167 240.333,263.833 240,263.5C 233.651,265.834 227.318,268.834 221,272.5C 219.092,271.921 217.425,271.921 216,272.5C 215.333,273.167 214.667,273.833 214,274.5C 212.32,273.397 210.82,273.73 209.5,275.5C 208.808,274.975 208.308,274.308 208,273.5C 207.009,274.939 205.676,275.939 204,276.5C 200.07,275.243 196.404,275.91 193,278.5C 192.667,278.167 192.333,277.833 192,277.5C 189,278.167 186,278.833 183,279.5C 181.602,278.949 180.268,278.616 179,278.5C 178.333,281.167 177.667,281.167 177,278.5C 173.978,280.005 170.978,280.672 168,280.5C 163.155,279.107 159.821,276.107 158,271.5C 157.667,273.5 157.333,275.5 157,277.5C 155.215,274.302 153.881,271.302 153,268.5C 152.506,270.134 152.34,271.801 152.5,273.5C 151.026,269.974 149.693,266.307 148.5,262.5C 148.195,255.778 149.529,255.111 152.5,260.5C 154.184,263.367 155.684,266.367 157,269.5C 157.333,267.167 157.667,264.833 158,262.5C 160.358,267.913 164.524,270.913 170.5,271.5C 171.192,270.975 171.692,270.308 172,269.5C 172.689,270.357 173.522,271.023 174.5,271.5C 176.49,270.127 178.657,269.127 181,268.5C 182.835,270.964 184.835,270.964 187,268.5C 190.853,268.315 194.519,268.648 198,269.5C 198.333,268.833 198.667,268.167 199,267.5C 201.797,267.413 204.63,267.413 207.5,267.5C 208.167,266.833 208.833,266.167 209.5,265.5C 211.156,267.022 212.323,266.689 213,264.5C 262.559,255.517 294.726,225.517 309.5,174.5 Z"/></g>
<g><path style="opacity:1" fill="#d78510" d="M 66.5,195.5 C 67.2216,195.918 67.7216,196.584 68,197.5C 68.3435,205.632 70.3435,213.298 74,220.5C 76.277,221.117 78.4437,221.784 80.5,222.5C 73.7084,223.766 67.0418,225.432 60.5,227.5C 59.8333,227.5 59.1667,227.5 58.5,227.5C 63.6686,222.678 66.3353,216.678 66.5,209.5C 67.6778,204.979 67.6778,200.312 66.5,195.5 Z"/></g>
<g><path style="opacity:0.97" fill="#fe8603" d="M 296.5,221.5 C 293.448,229.942 289.115,237.609 283.5,244.5C 266.393,261.528 246.059,275.695 222.5,287C 203.808,294.172 184.475,298.338 164.5,299.5C 160.912,298.222 157.912,296.222 155.5,293.5C 155.5,292.833 155.5,292.167 155.5,291.5C 155.709,290.078 156.209,288.745 157,287.5C 159.108,291.681 162.108,294.015 166,294.5C 171.383,294.644 176.883,294.144 182.5,293C 214.983,287.863 243.649,274.863 268.5,254C 278.473,243.541 287.806,232.708 296.5,221.5 Z"/></g>
<g><path style="opacity:1" fill="#f4f5f8" d="M 100.5,243.5 C 100.167,244.5 99.5,245.167 98.5,245.5C 97.5266,245.987 96.5266,246.487 95.5,247C 97.7148,248.044 100.048,248.71 102.5,249C 103.24,250.785 103.907,252.618 104.5,254.5C 103.167,256.5 101.5,258.167 99.5,259.5C 99.7093,260.086 100.043,260.586 100.5,261C 98.2168,264.075 95.3834,264.908 92,263.5C 85.9351,266.111 79.7685,268.611 73.5,271C 74.2931,272.085 74.9598,273.252 75.5,274.5C 74.9646,276.271 74.1313,276.604 73,275.5C 70.6833,278.097 67.85,278.93 64.5,278C 54.7709,273.937 46.4376,267.937 39.5,260C 40.9494,258.883 42.6161,258.216 44.5,258C 37.7667,252.255 38.1001,246.921 45.5,242C 45.0426,241.586 44.7093,241.086 44.5,240.5C 45.5901,238.997 46.7567,238.664 48,239.5C 49.7484,234.377 53.0818,231.711 58,231.5C 62.3704,230.685 66.7038,229.685 71,228.5C 71.414,228.957 71.914,229.291 72.5,229.5C 82.018,226.499 91.518,224.499 101,223.5C 104.425,223.536 106.425,225.203 107,228.5C 107.414,228.043 107.914,227.709 108.5,227.5C 111.368,231.609 110.368,234.443 105.5,236C 106.517,237.049 106.684,238.216 106,239.5C 103.985,240.697 102.151,242.03 100.5,243.5 Z"/></g>
<g><path style="opacity:1" fill="#dcdfe8" d="M 133.5,212.5 C 138.537,212.413 143.537,212.746 148.5,213.5C 152.945,214.98 157.279,216.647 161.5,218.5C 163.252,220.246 164.585,222.246 165.5,224.5C 165.5,225.5 165.5,226.5 165.5,227.5C 164.814,228.848 163.814,230.015 162.5,231C 154.1,231.212 145.767,232.046 137.5,233.5C 132.049,235.78 126.382,237.28 120.5,238C 119.244,238.417 118.577,239.25 118.5,240.5C 116.174,241.145 114.507,242.478 113.5,244.5C 113.389,245.117 113.056,245.617 112.5,246C 108.5,246.667 104.5,246.667 100.5,246C 101.381,245.292 102.047,244.458 102.5,243.5C 106.302,241.372 110.302,239.539 114.5,238C 120.305,233.393 126.972,230.727 134.5,230C 137.085,227.742 139.918,225.909 143,224.5C 144.853,220.967 144.353,218.133 141.5,216C 138.524,215.295 135.858,214.129 133.5,212.5 Z"/></g>
<g><path style="opacity:1" fill="#e7e9ef" d="M 52.5,186.5 C 57.3709,186.231 61.3709,187.897 64.5,191.5C 64.6596,193.153 65.3263,194.486 66.5,195.5C 67.6778,200.312 67.6778,204.979 66.5,209.5C 66.665,206.15 66.4983,202.817 66,199.5C 64.7001,207.155 60.8668,213.322 54.5,218C 46.9669,222.262 39.6336,226.762 32.5,231.5C 35.1062,232.652 37.7728,232.818 40.5,232C 46.1957,229.328 52.1957,227.828 58.5,227.5C 59.1667,227.5 59.8333,227.5 60.5,227.5C 50.3569,229.712 40.3569,232.879 30.5,237C 28.1317,240.886 26.4651,245.052 25.5,249.5C 26.4963,257.803 28.663,265.803 32,273.5C 34.128,276.63 36.628,279.463 39.5,282C 44.4646,282.231 48.2979,284.397 51,288.5C 51.414,288.043 51.914,287.709 52.5,287.5C 59.0276,291.077 66.0276,292.577 73.5,292C 78.7926,287.674 84.7926,284.674 91.5,283C 91.579,280.695 91.7457,278.195 92,275.5C 92.8333,274.5 93.6667,273.5 94.5,272.5C 105.406,267.764 115.74,262.097 125.5,255.5C 127.213,254.122 128.547,252.455 129.5,250.5C 129.291,249.914 128.957,249.414 128.5,249C 123.631,247.614 118.798,247.447 114,248.5C 108.483,248.177 103.316,247.177 98.5,245.5C 99.5,245.167 100.167,244.5 100.5,243.5C 101.167,243.5 101.833,243.5 102.5,243.5C 102.047,244.458 101.381,245.292 100.5,246C 104.5,246.667 108.5,246.667 112.5,246C 113.056,245.617 113.389,245.117 113.5,244.5C 115.833,244.5 118.167,244.5 120.5,244.5C 124.042,244.187 127.375,244.521 130.5,245.5C 130.749,248.002 131.083,250.502 131.5,253C 131.646,255.034 130.98,256.701 129.5,258C 121.265,262.754 112.598,266.754 103.5,270C 101.246,271.377 99.0795,272.877 97,274.5C 96.8333,275 96.6667,275.5 96.5,276C 99.1977,277.425 99.8644,279.425 98.5,282C 100.125,282.853 100.458,283.853 99.5,285C 93.8269,288.146 87.8269,290.479 81.5,292C 81.8333,292.333 82.1667,292.667 82.5,293C 78.8985,293.635 78.2318,294.968 80.5,297C 76.3945,296.546 72.2279,297.046 68,298.5C 56.2572,296.571 45.2572,292.904 35,287.5C 26.9651,274.372 22.7984,260.039 22.5,244.5C 22.5,242.167 22.5,239.833 22.5,237.5C 22.7373,236.209 22.404,235.209 21.5,234.5C 22.2271,232.046 23.2271,229.713 24.5,227.5C 28.4718,223.193 32.4718,218.859 36.5,214.5C 38.4509,213.284 39.9509,211.618 41,209.5C 44.4657,202.261 47.6323,194.928 50.5,187.5C 51.1667,187.167 51.8333,186.833 52.5,186.5 Z"/></g>
<g><path style="opacity:1" fill="#abb2c5" d="M 165.5,227.5 C 165.747,230.505 164.747,233.005 162.5,235C 157.628,236.388 152.628,236.888 147.5,236.5C 142.489,236.334 137.489,236.501 132.5,237C 127.834,238.232 123.167,239.399 118.5,240.5C 118.577,239.25 119.244,238.417 120.5,238C 126.382,237.28 132.049,235.78 137.5,233.5C 145.767,232.046 154.1,231.212 162.5,231C 163.814,230.015 164.814,228.848 165.5,227.5 Z"/></g>
<g><path style="opacity:0.972" fill="#28b1fc" d="M 21.5,234.5 C 22.404,235.209 22.7373,236.209 22.5,237.5C 21.184,240.408 20.184,243.408 19.5,246.5C 19.762,245.022 19.4287,243.689 18.5,242.5C 14.6904,267.685 21.3571,289.519 38.5,308C 37.552,308.483 36.552,308.649 35.5,308.5C 30.7681,304.008 26.7681,299.008 23.5,293.5C 22.7321,289.298 20.8988,285.631 18,282.5C 17,278.833 16,275.167 15,271.5C 14.3201,262.126 13.4868,252.793 12.5,243.5C 13.7878,241.261 14.7878,238.928 15.5,236.5C 17.4214,235.637 19.4214,234.971 21.5,234.5 Z"/></g>
<g><path style="opacity:1" fill="#c46a10" d="M 147.5,236.5 C 148.952,237.302 150.618,237.802 152.5,238C 145.458,238.269 138.458,238.936 131.5,240C 127.384,240.759 123.718,242.259 120.5,244.5C 118.167,244.5 115.833,244.5 113.5,244.5C 114.507,242.478 116.174,241.145 118.5,240.5C 123.167,239.399 127.834,238.232 132.5,237C 137.489,236.501 142.489,236.334 147.5,236.5 Z"/></g>
<g><path style="opacity:1" fill="#d17f1d" d="M 165.5,224.5 C 165.833,224.5 166.167,224.5 166.5,224.5C 166.5,224.833 166.5,225.167 166.5,225.5C 166.658,228.902 166.324,232.236 165.5,235.5C 163.692,236.907 161.692,238.074 159.5,239C 152.117,239.2 144.784,239.7 137.5,240.5C 136.12,243.932 136.787,246.932 139.5,249.5C 139.5,250.167 139.5,250.833 139.5,251.5C 139.5,251.833 139.5,252.167 139.5,252.5C 137.981,248.319 134.981,245.986 130.5,245.5C 127.375,244.521 124.042,244.187 120.5,244.5C 123.718,242.259 127.384,240.759 131.5,240C 138.458,238.936 145.458,238.269 152.5,238C 150.618,237.802 148.952,237.302 147.5,236.5C 152.628,236.888 157.628,236.388 162.5,235C 164.747,233.005 165.747,230.505 165.5,227.5C 165.5,226.5 165.5,225.5 165.5,224.5 Z"/></g>
<g><path style="opacity:0.974" fill="#1ea5f8" d="M 15.5,236.5 C 14.7878,238.928 13.7878,241.261 12.5,243.5C 13.4868,252.793 14.3201,262.126 15,271.5C 16,275.167 17,278.833 18,282.5C 20.8988,285.631 22.7321,289.298 23.5,293.5C 18.6914,285.898 13.858,278.231 9,270.5C 5.99897,263.829 4.49897,256.829 4.5,249.5C 6.07453,243.325 9.74119,238.992 15.5,236.5 Z"/></g>
<g><path style="opacity:1" fill="#e69309" d="M 165.5,235.5 C 162.566,240.269 158.733,244.269 154,247.5C 152.788,250.216 152.621,252.883 153.5,255.5C 152.962,257.117 152.629,258.784 152.5,260.5C 149.529,255.111 148.195,255.778 148.5,262.5C 145.75,258.002 142.75,253.669 139.5,249.5C 136.787,246.932 136.12,243.932 137.5,240.5C 144.784,239.7 152.117,239.2 159.5,239C 161.692,238.074 163.692,236.907 165.5,235.5 Z"/></g>
<g><path style="opacity:0.882" fill="#fd7e00" d="M 283.5,244.5 C 259.087,280.673 225.087,302.173 181.5,309C 169.154,310.655 156.821,310.822 144.5,309.5C 147.095,304.375 147.095,299.375 144.5,294.5C 145.344,290.901 145.677,287.234 145.5,283.5C 145.351,282.448 145.517,281.448 146,280.5C 147.333,285.828 148.666,291.162 150,296.5C 151.686,293.978 153.019,294.311 154,297.5C 155.188,296.437 155.688,295.103 155.5,293.5C 157.912,296.222 160.912,298.222 164.5,299.5C 184.475,298.338 203.808,294.172 222.5,287C 246.059,275.695 266.393,261.528 283.5,244.5 Z"/></g>
<g><path style="opacity:0.966" fill="#1796f3" d="M 4.5,249.5 C 4.49897,256.829 5.99897,263.829 9,270.5C 13.858,278.231 18.6914,285.898 23.5,293.5C 26.7681,299.008 30.7681,304.008 35.5,308.5C 18.2769,296.916 7.27693,280.916 2.5,260.5C 2.25108,256.542 2.91774,252.876 4.5,249.5 Z"/></g>
<g><path style="opacity:1" fill="#d96204" d="M 138.5,260.5 C 138.833,260.5 139.167,260.5 139.5,260.5C 139.598,267.419 140.764,274.419 143,281.5C 143.333,280.5 143.667,279.5 144,278.5C 144.198,280.382 144.698,282.048 145.5,283.5C 145.677,287.234 145.344,290.901 144.5,294.5C 144.649,295.552 144.483,296.552 144,297.5C 143.027,295.608 142.36,293.608 142,291.5C 141.086,295.185 140.419,294.852 140,290.5C 139.683,292.301 139.016,292.634 138,291.5C 137.598,290.128 137.098,288.795 136.5,287.5C 137.788,284.033 137.788,280.7 136.5,277.5C 136.276,275.213 135.609,273.047 134.5,271C 135.741,269.269 136.741,267.436 137.5,265.5C 138.038,263.883 138.371,262.216 138.5,260.5 Z"/></g>
<g><path style="opacity:0.976" fill="#309af0" d="M 19.5,246.5 C 18.711,260.766 21.0443,274.433 26.5,287.5C 30.3656,297.351 36.699,305.018 45.5,310.5C 45.5,310.833 45.5,311.167 45.5,311.5C 44.8485,312.091 44.1818,312.757 43.5,313.5C 40.7692,311.808 38.1025,310.142 35.5,308.5C 36.552,308.649 37.552,308.483 38.5,308C 21.3571,289.519 14.6904,267.685 18.5,242.5C 19.4287,243.689 19.762,245.022 19.5,246.5 Z"/></g>
<g><path style="opacity:0.923" fill="#0f80eb" d="M 2.5,260.5 C 7.27693,280.916 18.2769,296.916 35.5,308.5C 38.1025,310.142 40.7692,311.808 43.5,313.5C 44.1818,312.757 44.8485,312.091 45.5,311.5C 47.1042,312.287 47.7709,313.62 47.5,315.5C 46.5,315.5 45.5,315.5 44.5,315.5C 38.1986,313.668 31.8652,311.835 25.5,310C 19.9859,305.977 14.6525,301.81 9.5,297.5C 4.17478,285.551 1.84145,273.217 2.5,260.5 Z"/></g>
<g><path style="opacity:1" fill="#ec7a03" d="M 139.5,251.5 C 143.725,260.677 146.892,270.344 149,280.5C 149.333,278.167 149.667,275.833 150,273.5C 150.464,280.048 152.297,286.048 155.5,291.5C 155.5,292.167 155.5,292.833 155.5,293.5C 155.688,295.103 155.188,296.437 154,297.5C 153.019,294.311 151.686,293.978 150,296.5C 148.666,291.162 147.333,285.828 146,280.5C 145.517,281.448 145.351,282.448 145.5,283.5C 144.698,282.048 144.198,280.382 144,278.5C 143.667,279.5 143.333,280.5 143,281.5C 140.764,274.419 139.598,267.419 139.5,260.5C 139.5,257.833 139.5,255.167 139.5,252.5C 139.5,252.167 139.5,251.833 139.5,251.5 Z"/></g>
<g><path style="opacity:1" fill="#8f96b1" d="M 133.5,285.5 C 133.291,286.922 132.791,288.255 132,289.5C 129.809,290.833 127.976,292.5 126.5,294.5C 124.143,294.663 121.81,294.497 119.5,294C 124.263,291.202 128.763,288.036 133,284.5C 133.399,284.728 133.565,285.062 133.5,285.5 Z"/></g>
<g><path style="opacity:1" fill="#cd4403" d="M 137.5,265.5 C 136.741,267.436 135.741,269.269 134.5,271C 135.609,273.047 136.276,275.213 136.5,277.5C 136.197,284.366 135.53,291.2 134.5,298C 134.585,299.107 134.919,300.107 135.5,301C 133.798,303.235 132.798,305.735 132.5,308.5C 130.167,307.833 127.833,307.167 125.5,306.5C 126.594,304.135 127.261,301.635 127.5,299C 127.486,297.615 127.152,296.449 126.5,295.5C 126.5,295.167 126.5,294.833 126.5,294.5C 127.976,292.5 129.809,290.833 132,289.5C 132.791,288.255 133.291,286.922 133.5,285.5C 136.133,280.502 135.8,275.502 132.5,270.5C 133.855,268.479 135.521,266.812 137.5,265.5 Z"/></g>
<g><path style="opacity:0.935" fill="#df5700" d="M 136.5,277.5 C 137.788,280.7 137.788,284.033 136.5,287.5C 137.098,288.795 137.598,290.128 138,291.5C 139.016,292.634 139.683,292.301 140,290.5C 140.419,294.852 141.086,295.185 142,291.5C 142.36,293.608 143.027,295.608 144,297.5C 144.483,296.552 144.649,295.552 144.5,294.5C 147.095,299.375 147.095,304.375 144.5,309.5C 140.481,309.354 136.481,309.021 132.5,308.5C 132.798,305.735 133.798,303.235 135.5,301C 134.919,300.107 134.585,299.107 134.5,298C 135.53,291.2 136.197,284.366 136.5,277.5 Z"/></g>
<g><path style="opacity:1" fill="#e0e4ec" d="M 22.5,244.5 C 22.7984,260.039 26.9651,274.372 35,287.5C 45.2572,292.904 56.2572,296.571 68,298.5C 72.2279,297.046 76.3945,296.546 80.5,297C 78.2318,294.968 78.8985,293.635 82.5,293C 82.1667,292.667 81.8333,292.333 81.5,292C 87.8269,290.479 93.8269,288.146 99.5,285C 100.458,283.853 100.125,282.853 98.5,282C 99.8644,279.425 99.1977,277.425 96.5,276C 96.6667,275.5 96.8333,275 97,274.5C 99.0795,272.877 101.246,271.377 103.5,270C 112.598,266.754 121.265,262.754 129.5,258C 130.98,256.701 131.646,255.034 131.5,253C 131.083,250.502 130.749,248.002 130.5,245.5C 134.981,245.986 137.981,248.319 139.5,252.5C 139.5,255.167 139.5,257.833 139.5,260.5C 139.167,260.5 138.833,260.5 138.5,260.5C 138.565,260.062 138.399,259.728 138,259.5C 132.56,262.609 127.393,266.109 122.5,270C 119.5,271 116.5,272 113.5,273C 115.473,273.495 117.473,273.662 119.5,273.5C 129.587,272.361 131.587,275.528 125.5,283C 118.228,287.274 111.228,291.941 104.5,297C 105.108,297.87 105.941,298.37 107,298.5C 108.713,297.047 110.213,297.214 111.5,299C 95.0249,308.261 77.0249,311.594 57.5,309C 53.2707,307.885 49.2707,306.219 45.5,304C 39.1866,296.6 33.0199,289.1 27,281.5C 25.5768,273.782 23.9101,266.115 22,258.5C 21.1849,253.648 21.3516,248.981 22.5,244.5 Z"/></g>
<g><path style="opacity:0.77" fill="#0368e2" d="M 9.5,297.5 C 14.6525,301.81 19.9859,305.977 25.5,310C 31.8652,311.835 38.1986,313.668 44.5,315.5C 33.3106,320.662 23.8106,318.328 16,308.5C 13.8218,304.806 11.6552,301.139 9.5,297.5 Z"/></g>
<g><path style="opacity:1" fill="#cfd5e1" d="M 22.5,237.5 C 22.5,239.833 22.5,242.167 22.5,244.5C 21.3516,248.981 21.1849,253.648 22,258.5C 23.9101,266.115 25.5768,273.782 27,281.5C 33.0199,289.1 39.1866,296.6 45.5,304C 49.2707,306.219 53.2707,307.885 57.5,309C 77.0249,311.594 95.0249,308.261 111.5,299C 110.213,297.214 108.713,297.047 107,298.5C 105.941,298.37 105.108,297.87 104.5,297C 111.228,291.941 118.228,287.274 125.5,283C 131.587,275.528 129.587,272.361 119.5,273.5C 123.675,271.069 127.842,271.069 132,273.5C 132.667,275.833 132.667,278.167 132,280.5C 127.767,283.729 123.267,286.562 118.5,289C 116.833,292 114.5,294.333 111.5,296C 115.524,296.497 119.524,296.331 123.5,295.5C 123.771,297.821 123.104,299.821 121.5,301.5C 118.02,303.453 114.354,304.953 110.5,306C 100.653,307.605 90.9858,309.939 81.5,313C 73.1195,313.787 64.7861,313.454 56.5,312C 52.9301,309.123 48.9301,306.789 44.5,305C 38.2929,300.625 33.2929,295.125 29.5,288.5C 28.675,287.614 27.675,287.281 26.5,287.5C 21.0443,274.433 18.711,260.766 19.5,246.5C 20.184,243.408 21.184,240.408 22.5,237.5 Z"/></g>
<g><path style="opacity:1" fill="#b6bdd0" d="M 138.5,260.5 C 138.371,262.216 138.038,263.883 137.5,265.5C 135.521,266.812 133.855,268.479 132.5,270.5C 135.8,275.502 136.133,280.502 133.5,285.5C 133.565,285.062 133.399,284.728 133,284.5C 128.763,288.036 124.263,291.202 119.5,294C 121.81,294.497 124.143,294.663 126.5,294.5C 126.5,294.833 126.5,295.167 126.5,295.5C 126.799,297.604 126.466,299.604 125.5,301.5C 124.155,302.347 123.155,303.513 122.5,305C 112.069,308.381 101.736,312.048 91.5,316C 80.5292,317.376 69.5292,317.709 58.5,317C 53.5433,315.828 49.2099,313.661 45.5,310.5C 36.699,305.018 30.3656,297.351 26.5,287.5C 27.675,287.281 28.675,287.614 29.5,288.5C 33.2929,295.125 38.2929,300.625 44.5,305C 48.9301,306.789 52.9301,309.123 56.5,312C 64.7861,313.454 73.1195,313.787 81.5,313C 90.9858,309.939 100.653,307.605 110.5,306C 114.354,304.953 118.02,303.453 121.5,301.5C 123.104,299.821 123.771,297.821 123.5,295.5C 119.524,296.331 115.524,296.497 111.5,296C 114.5,294.333 116.833,292 118.5,289C 123.267,286.562 127.767,283.729 132,280.5C 132.667,278.167 132.667,275.833 132,273.5C 127.842,271.069 123.675,271.069 119.5,273.5C 117.473,273.662 115.473,273.495 113.5,273C 116.5,272 119.5,271 122.5,270C 127.393,266.109 132.56,262.609 138,259.5C 138.399,259.728 138.565,260.062 138.5,260.5 Z"/></g>
<g><path style="opacity:0.51" fill="#949fbb" d="M 126.5,295.5 C 127.152,296.449 127.486,297.615 127.5,299C 127.261,301.635 126.594,304.135 125.5,306.5C 120.882,309.413 115.882,311.58 110.5,313C 101.111,315.516 91.778,317.683 82.5,319.5C 74.8333,319.5 67.1667,319.5 59.5,319.5C 55.6589,317.997 51.6589,316.664 47.5,315.5C 47.7709,313.62 47.1042,312.287 45.5,311.5C 45.5,311.167 45.5,310.833 45.5,310.5C 49.2099,313.661 53.5433,315.828 58.5,317C 69.5292,317.709 80.5292,317.376 91.5,316C 101.736,312.048 112.069,308.381 122.5,305C 123.155,303.513 124.155,302.347 125.5,301.5C 126.466,299.604 126.799,297.604 126.5,295.5 Z"/></g>
</svg>
